<?xml version="1.0" standalone="no"?>
<!DOCTYPE svg PUBLIC "-//W3C//DTD SVG 20010904//EN"
 "http://www.w3.org/TR/2001/REC-SVG-20010904/DTD/svg10.dtd">
<svg version="1.0" xmlns="http://www.w3.org/2000/svg"
 width="1280.000000pt" height="1005.000000pt" viewBox="0 0 1280.000000 1005.000000"
 preserveAspectRatio="xMidYMid meet">
<g transform="translate(0.000000,1005.000000) scale(0.100000,-0.100000)"
fill="#000000" stroke="none">
<path d="M6530 10006 c-134 -105 -303 -305 -410 -480 -98 -163 -130 -257 -130
-383 0 -72 9 -74 30 -8 22 69 87 187 157 280 86 116 422 455 450 455 46 0 161
-160 323 -450 88 -156 188 -320 195 -320 17 0 -93 281 -193 495 -127 273 -207
402 -271 435 -60 30 -88 26 -151 -24z"/>
<path d="M2789 9828 c-134 -184 -213 -481 -253 -948 -40 -457 -46 -1187 -13
-1345 19 -90 52 -185 90 -260 17 -33 52 -112 78 -175 68 -163 63 -93 -11 150
-54 176 -63 257 -57 530 7 292 23 476 83 955 48 382 79 571 119 725 36 137 64
202 85 198 9 -2 174 -155 366 -341 327 -317 425 -406 363 -330 -25 32 -146
185 -388 493 -256 325 -323 390 -398 390 -27 0 -38 -7 -64 -42z"/>
<path d="M4444 9522 c-16 -11 -47 -39 -68 -63 -83 -96 -210 -414 -256 -639
-36 -178 -28 -172 98 75 155 304 236 435 267 435 19 0 50 -43 131 -180 72
-123 201 -320 209 -320 3 0 -2 17 -11 38 -40 91 -88 218 -145 381 -34 97 -74
201 -88 231 -26 52 -30 55 -67 58 -25 1 -50 -4 -70 -16z"/>
<path d="M5358 9152 c-26 -5 -89 -94 -169 -237 -39 -71 -99 -166 -132 -210
-109 -147 -204 -370 -241 -565 -17 -86 -22 -275 -8 -284 4 -2 32 70 61 160 90
277 159 397 399 693 47 58 98 133 114 168 32 70 49 83 84 62 12 -8 147 -135
298 -282 152 -148 276 -265 276 -259 0 11 -123 191 -204 297 -84 110 -248 296
-338 381 -71 68 -102 84 -140 76z"/>
<path d="M6522 9010 c0 -14 2 -19 5 -12 2 6 2 18 0 25 -3 6 -5 1 -5 -13z"/>
<path d="M6506 8929 c-4 -28 -5 -53 -3 -56 3 -2 8 19 12 47 4 28 5 53 2 56 -2
3 -7 -19 -11 -47z"/>
<path d="M7535 8824 c-181 -39 -464 -155 -545 -224 l-35 -30 55 21 c153 60
301 90 545 110 214 17 216 16 244 -173 7 -42 38 -168 70 -280 32 -112 69 -246
82 -298 l24 -95 3 95 c5 129 -14 338 -45 495 -13 72 -31 167 -38 212 -16 100
-30 131 -74 160 -29 20 -46 23 -125 22 -50 0 -122 -7 -161 -15z"/>
<path d="M3074 8680 c0 -80 2 -112 3 -72 2 39 2 105 0 145 -1 39 -3 7 -3 -73z"/>
<path d="M3626 8663 c-84 -42 -147 -104 -286 -278 -240 -301 -373 -568 -441
-885 -19 -88 -23 -137 -23 -300 -1 -169 2 -210 23 -305 13 -60 31 -130 41
-155 37 -92 81 -183 86 -178 3 3 -4 41 -15 84 -70 274 -69 553 4 809 60 212
334 679 576 979 67 85 103 116 130 116 10 0 65 -35 121 -78 88 -67 445 -321
487 -346 32 -20 -9 25 -114 125 -278 263 -486 449 -502 449 -10 -1 -49 -17
-87 -37z"/>
<path d="M8960 8693 c-328 -57 -614 -168 -778 -304 -41 -34 -71 -63 -68 -66 2
-3 49 15 103 40 161 74 319 117 553 151 178 26 235 29 273 17 59 -20 62 -38
48 -304 -35 -677 -35 -676 -77 -897 -18 -97 89 199 121 335 47 196 123 797
111 876 -8 54 -52 111 -107 139 -37 19 -112 25 -179 13z"/>
<path d="M4502 8595 c0 -33 3 -85 8 -115 l7 -55 1 55 c0 30 -4 82 -8 115 l-7
60 -1 -60z"/>
<path d="M904 8482 c-53 -34 -78 -130 -90 -352 -7 -128 9 -408 32 -570 8 -58
30 -151 49 -206 73 -220 268 -561 455 -794 68 -86 221 -252 227 -247 2 3 -34
62 -80 133 -238 364 -400 717 -452 984 -20 103 -37 541 -28 714 9 166 16 172
159 136 176 -45 395 -138 709 -299 127 -66 259 -135 294 -155 35 -20 66 -35
68 -33 2 2 -20 24 -49 49 -212 179 -514 370 -813 514 -267 129 -415 167 -481
126z"/>
<path d="M6461 8464 c-82 -41 -176 -173 -244 -344 -71 -177 -90 -295 -103
-616 -10 -260 19 -237 67 51 45 279 113 453 243 627 71 95 104 123 135 113 75
-24 405 -462 637 -847 l86 -143 -5 50 c-8 91 -151 427 -265 622 -121 206 -409
513 -482 513 -9 0 -40 -12 -69 -26z"/>
<path d="M5298 8285 c-85 -58 -260 -295 -356 -483 -52 -102 -100 -229 -122
-322 -16 -69 -36 -110 -55 -110 -7 0 -35 36 -61 80 -55 91 -161 206 -200 216
-66 17 -154 -48 -208 -154 -35 -69 -99 -259 -124 -367 -36 -158 -47 -286 -47
-580 0 -303 6 -349 61 -460 13 -27 22 -41 18 -30 -3 11 -8 72 -11 135 -13 273
54 685 157 958 62 164 120 243 168 228 42 -14 186 -280 226 -418 13 -47 30
-130 36 -184 6 -53 15 -103 21 -111 6 -7 29 -18 50 -23 50 -14 101 7 129 52
25 41 25 84 4 300 -28 289 2 474 110 693 64 129 224 383 265 419 15 14 26 17
40 10 39 -18 240 -281 395 -517 134 -203 142 -205 51 -12 -159 338 -412 705
-485 705 -14 0 -42 -11 -62 -25z"/>
<path d="M8758 8153 c-32 -38 -58 -92 -74 -152 -17 -70 -13 -94 6 -34 7 21 30
75 51 121 21 45 36 82 35 82 -2 0 -10 -8 -18 -17z"/>
<path d="M9955 8161 c-29 -12 -185 -153 -360 -325 -172 -169 -168 -169 100 -1
290 181 301 184 322 100 21 -84 101 -572 117 -715 33 -289 46 -738 26 -915 -9
-73 -34 -202 -66 -340 -2 -11 6 0 20 25 82 153 156 518 172 850 13 262 -45
828 -113 1110 -29 122 -51 170 -89 195 -32 20 -99 29 -129 16z"/>
<path d="M7466 8073 c-11 -49 -17 -392 -6 -358 10 32 27 385 18 385 -3 0 -9
-12 -12 -27z"/>
<path d="M3783 7910 c7 -114 47 -324 66 -343 9 -9 10 -4 6 18 -3 17 -19 117
-35 224 -17 107 -33 197 -36 200 -4 3 -4 -41 -1 -99z"/>
<path d="M8225 7798 c-52 -27 -103 -68 -250 -203 -66 -61 -151 -136 -190 -167
-74 -59 -129 -114 -188 -189 -49 -61 -47 -68 6 -25 23 19 110 74 192 122 183
106 283 172 355 234 70 60 90 70 136 70 48 0 93 -46 116 -121 58 -183 84 -671
46 -869 -13 -69 -86 -321 -133 -459 -19 -58 -35 -106 -35 -107 0 -1 44 42 98
95 202 200 416 347 494 339 53 -5 63 -38 62 -203 -1 -103 -10 -207 -37 -397
-43 -298 -44 -322 -15 -258 93 202 177 568 163 711 -8 88 -38 212 -58 243 -35
53 -136 41 -242 -30 -32 -21 -125 -102 -205 -181 -81 -79 -153 -143 -159 -143
-21 0 -11 30 54 169 135 290 160 404 160 751 0 197 -3 261 -18 325 -35 160
-102 253 -214 295 -67 25 -87 25 -138 -2z"/>
<path d="M6610 7729 c0 -38 42 -283 59 -349 l20 -75 -5 80 c-6 108 -74 422
-74 344z"/>
<path d="M3525 7628 c-79 -92 -209 -422 -272 -688 -46 -197 -42 -664 7 -856
35 -136 188 -424 260 -489 l22 -20 -17 40 c-47 106 -125 351 -136 426 -15 106
-7 467 15 630 35 257 164 794 196 814 35 22 114 -73 246 -295 43 -72 82 -134
87 -137 25 -15 -49 212 -109 332 -77 155 -189 285 -245 285 -9 0 -34 -19 -54
-42z"/>
<path d="M1470 7562 c0 -17 151 -311 184 -357 20 -27 36 -46 36 -42 0 19 -206
407 -216 407 -2 0 -4 -3 -4 -8z"/>
<path d="M5380 7455 c0 -41 39 -219 47 -212 5 5 -36 239 -43 246 -2 2 -4 -13
-4 -34z"/>
<path d="M9745 7380 c-43 -93 -41 -121 3 -34 27 55 47 114 39 114 -2 0 -21
-36 -42 -80z"/>
<path d="M7290 7281 c0 -5 5 -13 10 -16 6 -3 10 -2 10 4 0 5 -4 13 -10 16 -5
3 -10 2 -10 -4z"/>
<path d="M8140 7150 c-109 -210 -216 -447 -207 -456 7 -7 95 134 132 212 47
99 117 284 112 298 -2 6 -19 -18 -37 -54z"/>
<path d="M5441 7185 c1 -19 18 -51 18 -35 0 8 -4 22 -9 30 -5 8 -9 11 -9 5z"/>
<path d="M9460 7076 c-77 -23 -143 -52 -403 -179 -193 -93 -245 -123 -224
-125 40 -5 174 25 337 74 329 101 412 111 447 57 49 -74 83 -504 83 -1047 0
-154 2 -277 5 -274 10 10 66 280 88 422 32 215 28 636 -10 929 -6 53 -33 99
-76 131 -23 17 -45 21 -115 23 -50 1 -106 -4 -132 -11z"/>
<path d="M1891 6994 c-62 -52 -100 -250 -108 -559 -6 -234 10 -543 33 -646 16
-71 95 -222 191 -367 169 -255 657 -664 931 -781 92 -39 87 -19 -15 56 -261
192 -584 539 -745 799 -187 303 -213 414 -213 929 0 377 4 401 68 399 48 -2
346 -150 467 -232 90 -61 198 -176 260 -278 19 -30 43 -66 53 -77 17 -22 17
-22 6 8 -29 82 -150 247 -265 361 -41 41 -137 115 -225 174 -85 57 -195 134
-245 172 -105 79 -141 86 -193 42z"/>
<path d="M6660 6804 c0 -4 7 -48 14 -98 42 -262 49 -340 42 -491 -4 -82 -10
-153 -15 -158 -5 -5 -37 -9 -71 -10 -70 -2 -70 -2 -85 86 -4 23 -20 53 -41 76
-26 30 -34 47 -34 77 0 106 -44 311 -87 407 -31 69 -42 70 -15 1 27 -69 81
-319 84 -388 3 -62 -7 -76 -53 -76 -34 0 -75 -33 -83 -66 -4 -14 -14 -37 -23
-51 -28 -42 -52 -27 -100 62 -23 44 -54 90 -69 101 -22 18 -29 35 -40 107 -12
76 -41 173 -50 165 -1 -2 4 -29 11 -61 12 -53 18 -114 16 -159 -1 -14 -10 -18
-36 -18 -48 0 -110 -33 -132 -70 -9 -16 -23 -30 -30 -30 -7 0 -26 26 -41 58
-29 58 -108 182 -118 182 -3 0 4 -14 16 -30 12 -17 51 -91 86 -165 66 -139 79
-195 45 -195 -10 0 -25 7 -32 17 -33 39 -113 54 -175 31 -32 -11 -35 -10 -82
34 -43 40 -156 108 -179 108 -4 0 23 -19 62 -43 38 -23 89 -61 114 -84 l44
-42 -19 -28 c-28 -44 -26 -155 6 -222 29 -62 22 -71 -54 -71 -35 0 -56 6 -70
19 -12 10 -34 27 -51 37 l-30 18 33 -35 c17 -19 32 -40 32 -45 0 -6 -15 -24
-34 -41 -52 -45 -56 -89 -17 -153 17 -28 31 -58 31 -68 0 -15 13 -21 62 -30
34 -6 66 -16 71 -21 7 -7 4 -29 -8 -66 -20 -64 -14 -134 13 -158 9 -8 44 -29
77 -47 54 -29 66 -31 120 -27 33 3 86 16 117 28 66 25 88 17 88 -32 0 -23 4
-29 22 -29 12 0 29 -7 38 -15 35 -31 83 -30 159 5 58 27 73 31 86 20 13 -11
14 -9 9 17 -4 20 -1 33 10 42 21 18 46 7 46 -19 0 -35 51 -77 103 -85 55 -9
117 9 117 33 0 10 9 23 20 30 13 8 20 23 20 41 0 17 5 33 11 36 6 4 43 -27 82
-68 57 -60 80 -77 109 -83 50 -8 89 2 95 26 3 11 11 20 19 20 8 0 16 18 20 51
9 66 24 81 67 67 17 -6 57 -17 87 -25 33 -9 69 -28 89 -46 l35 -32 -23 29 -22
30 49 45 c51 48 78 96 62 106 -6 4 -10 15 -10 26 0 11 -9 37 -19 58 -19 36
-38 49 -98 66 -13 3 -23 10 -23 15 0 13 53 90 62 90 4 0 8 24 8 53 0 40 -7 63
-30 100 -17 26 -35 47 -40 47 -6 0 -10 9 -10 19 0 40 228 212 472 354 96 57
133 86 85 68 -129 -49 -366 -204 -520 -338 -50 -45 -64 -51 -111 -55 -34 -3
-63 -12 -81 -26 -15 -12 -36 -22 -46 -22 -16 0 -19 8 -19 43 0 23 7 53 16 65
13 19 13 24 2 36 -8 7 -23 41 -33 75 -13 38 -26 61 -35 61 -8 0 -23 7 -34 15
-14 11 -24 12 -38 4 -13 -7 -24 -7 -30 -1 -5 5 -11 100 -12 213 -2 112 -8 231
-15 264 -32 161 -61 275 -61 239z"/>
<path d="M10920 6757 c-49 -22 -455 -249 -465 -259 -7 -7 -3 -8 10 -5 228 63
375 100 399 101 l31 1 -1 -60 c-2 -106 -136 -649 -202 -818 -40 -104 -147
-261 -245 -362 -124 -125 -328 -249 -482 -290 -36 -10 -62 -22 -57 -27 25 -25
274 38 400 101 165 83 340 229 422 350 132 196 292 651 330 938 17 127 9 276
-17 311 -23 31 -80 40 -123 19z"/>
<path d="M4521 6699 c-2 -12 30 -173 40 -209 16 -55 51 -141 55 -137 3 2 -16
78 -41 168 -46 166 -53 189 -54 178z"/>
<path d="M126 6680 c-38 -12 -83 -56 -107 -104 -30 -63 -29 -70 42 -298 52
-168 177 -402 347 -648 102 -148 174 -233 336 -396 236 -236 413 -368 641
-479 294 -143 672 -251 964 -275 128 -11 247 -13 239 -5 -3 3 -72 21 -154 39
-547 124 -1026 359 -1387 680 -266 237 -612 670 -727 911 -48 99 -110 277
-110 314 0 50 31 66 136 69 125 5 197 -12 474 -110 556 -197 732 -256 715
-239 -35 33 -669 351 -928 465 -70 31 -153 63 -184 71 -62 16 -249 19 -297 5z"/>
<path d="M6972 6610 c0 -19 2 -27 5 -17 2 9 2 25 0 35 -3 9 -5 1 -5 -18z"/>
<path d="M3711 6519 c-2 -34 68 -353 75 -346 4 3 -62 327 -71 352 -2 6 -4 3
-4 -6z"/>
<path d="M9357 6459 c-33 -79 -57 -149 -52 -149 9 0 54 88 70 138 25 77 13 84
-18 11z"/>
<path d="M7354 6375 c-96 -48 -182 -121 -257 -218 -35 -45 -67 -89 -72 -97
-11 -21 3 -5 55 60 83 105 126 142 243 212 64 39 117 72 117 74 0 10 -22 2
-86 -31z"/>
<path d="M2390 6065 c0 -26 159 -326 160 -302 0 4 -34 75 -75 157 -66 133 -85
164 -85 145z"/>
<path d="M9409 5993 c-73 -78 -215 -299 -382 -593 -79 -140 -84 -150 -68 -150
13 0 167 172 297 332 120 147 137 155 142 68 7 -112 -59 -500 -112 -662 -50
-152 -155 -340 -292 -525 -45 -61 -80 -114 -76 -117 10 -11 76 6 106 28 150
108 365 433 447 676 68 205 109 459 109 678 0 207 -30 303 -97 310 -24 2 -37
-6 -74 -45z"/>
<path d="M8596 5967 c-10 -18 -38 -70 -63 -117 -35 -67 -39 -79 -18 -55 26 30
111 193 103 200 -2 2 -12 -11 -22 -28z"/>
<path d="M4665 5885 c-214 -63 -606 -209 -716 -266 -148 -77 -166 -125 -104
-275 19 -46 35 -91 35 -99 0 -28 -50 -16 -152 36 -197 102 -274 159 -501 377
-144 138 -165 152 -222 152 -72 0 -107 -68 -159 -301 -67 -300 4 -544 217
-745 78 -73 414 -331 533 -407 93 -60 335 -186 445 -231 48 -20 127 -43 175
-51 84 -15 465 -34 454 -22 -3 3 -77 19 -165 37 -261 52 -386 103 -597 246
-232 157 -642 489 -781 632 -93 96 -119 148 -125 252 -7 118 36 310 69 310 16
0 84 -37 249 -135 319 -189 472 -259 716 -330 188 -54 347 -114 564 -212 205
-93 199 -90 180 -70 -28 29 -254 189 -300 212 -25 12 -108 48 -185 79 -185 75
-252 114 -313 181 -95 104 -105 189 -27 232 93 51 570 194 699 209 120 14 153
-8 277 -184 92 -132 237 -281 424 -437 124 -104 258 -208 310 -241 30 -19 30
-19 15 1 -8 11 -94 108 -191 215 -319 352 -407 471 -484 655 -84 200 -152 236
-340 180z"/>
<path d="M7435 5865 c-27 -13 -45 -23 -40 -24 6 0 33 11 60 24 28 13 46 23 40
24 -5 0 -32 -11 -60 -24z"/>
<path d="M1065 5683 c56 -57 435 -300 435 -279 0 3 -78 56 -172 119 -168 111
-283 181 -263 160z"/>
<path d="M8580 5409 c-89 -48 -184 -114 -375 -259 -240 -182 -383 -260 -665
-365 -168 -62 -333 -136 -344 -154 -9 -15 7 -14 172 5 248 29 477 98 647 195
110 63 435 277 529 348 38 29 74 50 81 47 30 -11 28 -276 -4 -561 -5 -44 -8
-82 -5 -84 8 -9 83 168 103 242 33 126 43 231 39 421 -3 162 -5 179 -22 192
-33 23 -77 16 -156 -27z"/>
<path d="M11615 5373 c-33 -1 -197 -15 -365 -29 -299 -26 -399 -44 -249 -44
42 0 100 -4 130 -10 85 -15 390 -38 814 -60 534 -28 609 -38 621 -85 20 -79
-241 -375 -521 -593 -66 -51 -199 -146 -295 -212 -244 -167 -266 -189 -159
-151 228 79 616 294 809 448 79 64 206 189 255 253 115 150 170 314 133 395
-8 18 -35 39 -80 61 l-68 34 -482 -2 c-266 -1 -510 -3 -543 -5z"/>
<path d="M7388 5313 c7 -3 16 -2 19 1 4 3 -2 6 -13 5 -11 0 -14 -3 -6 -6z"/>
<path d="M7428 5303 c6 -2 18 -2 25 0 6 3 1 5 -13 5 -14 0 -19 -2 -12 -5z"/>
<path d="M6301 5075 c0 -5 11 -30 24 -55 13 -25 24 -40 24 -35 0 6 -11 30 -24
55 -13 25 -24 41 -24 35z"/>
<path d="M6960 5076 c0 -10 50 -86 57 -86 5 0 -23 51 -41 75 -8 11 -16 16 -16
11z"/>
<path d="M6621 5020 c14 -31 19 -36 19 -24 0 6 -7 19 -16 30 -14 18 -14 18 -3
-6z"/>
<path d="M10570 5024 c-91 -16 -367 -78 -373 -84 -5 -5 44 -11 110 -14 418
-22 443 -26 443 -70 0 -84 -485 -605 -715 -768 -86 -61 -454 -244 -590 -293
-55 -19 -120 -43 -145 -52 -65 -24 -37 -26 97 -8 248 33 379 71 590 170 242
115 436 280 672 575 131 163 222 300 236 356 20 80 -3 137 -70 172 -30 15
-199 26 -255 16z"/>
<path d="M11635 4757 c-55 -30 -169 -85 -253 -123 -84 -38 -149 -70 -144 -72
17 -5 203 68 288 113 44 24 109 62 144 84 107 69 99 69 -35 -2z"/>
<path d="M9683 4698 c-17 -13 -69 -55 -115 -94 -168 -144 -394 -273 -553 -315
-75 -19 -176 -27 -565 -40 l-45 -1 35 -9 c64 -15 374 -32 480 -25 123 7 262
28 379 57 94 23 113 18 93 -26 -35 -77 -183 -190 -350 -266 -205 -95 -562
-217 -859 -295 l-208 -54 140 4 c259 9 679 77 872 141 433 145 837 531 861
822 4 59 3 63 -26 92 -38 39 -92 42 -139 9z"/>
<path d="M6400 4699 c-25 -6 -90 -23 -145 -39 -149 -42 -281 -75 -467 -115
-283 -60 -391 -97 -450 -153 -117 -109 75 -308 372 -386 97 -25 199 -43 190
-33 -3 3 -55 23 -115 45 -161 58 -238 97 -300 154 -140 128 -76 160 485 243
236 35 429 71 517 97 41 12 45 11 155 -41 303 -143 637 -254 880 -292 43 -6
85 -17 94 -24 29 -21 8 -61 -78 -151 -44 -46 -76 -84 -71 -84 5 0 36 16 69 36
124 74 198 175 174 235 -15 35 -58 52 -284 114 -303 82 -397 123 -618 267 -76
49 -159 98 -185 110 -55 24 -156 32 -223 17z"/>
<path d="M2974 4336 c-211 -72 -625 -273 -1064 -518 -293 -164 -381 -220 -438
-283 -78 -85 -104 -194 -63 -261 26 -42 124 -111 247 -172 352 -176 1131 -450
1591 -559 l118 -28 370 1 c404 1 546 12 865 64 330 55 647 127 498 114 -526
-46 -1247 -50 -1564 -9 -366 48 -665 133 -1187 337 -128 50 -308 119 -400 154
-242 92 -337 146 -337 193 0 41 152 149 860 611 272 178 378 242 533 321 64
33 117 62 117 64 0 13 -54 2 -146 -29z"/>
<path d="M10801 4156 c3 -3 91 -35 195 -70 256 -86 405 -146 554 -222 139 -70
292 -167 329 -207 22 -25 23 -28 8 -50 -8 -13 -46 -40 -84 -59 -115 -61 -290
-108 -603 -162 l-135 -24 216 -1 c373 -2 596 33 770 120 66 33 104 74 119 130
20 72 -6 109 -134 191 -190 122 -524 238 -915 318 -138 28 -333 50 -320 36z"/>
<path d="M10528 3733 c61 -2 163 -2 225 0 61 1 11 3 -113 3 -124 0 -174 -2
-112 -3z"/>
<path d="M5230 3598 c-50 -25 -98 -66 -230 -198 -187 -187 -270 -248 -399
-294 -83 -30 -92 -31 -256 -31 -190 0 -243 11 -376 81 -78 41 -109 68 -109 93
0 11 46 63 108 122 l107 102 -40 -7 c-71 -13 -121 -42 -194 -113 -57 -54 -73
-76 -78 -105 -5 -34 -1 -41 45 -90 60 -63 166 -123 302 -169 90 -31 104 -33
270 -37 163 -4 183 -2 283 22 137 33 163 47 295 153 165 133 222 173 248 173
25 0 28 -7 38 -92 3 -25 18 -77 32 -115 22 -55 42 -82 103 -143 127 -127 371
-276 561 -344 175 -63 310 -78 612 -65 388 15 518 37 666 110 57 28 102 59
142 99 78 78 98 134 107 291 3 70 11 123 18 129 7 6 77 -4 201 -29 374 -77
616 -80 994 -15 269 46 370 81 424 145 24 28 25 34 13 53 -34 51 -136 79 -332
90 l-100 6 81 -29 c120 -43 154 -61 154 -82 0 -48 -112 -69 -392 -76 -319 -8
-671 22 -813 69 -33 11 -128 55 -212 99 -175 91 -206 97 -254 49 l-30 -29 3
-233 3 -233 -28 -41 c-34 -50 -96 -96 -157 -117 -128 -43 -584 -93 -775 -84
-89 4 -134 12 -235 42 -330 99 -537 217 -594 339 -30 65 -19 161 32 272 52
113 56 167 15 207 -68 65 -156 74 -253 25z"/>
<path d="M10070 3557 c8 -8 116 -76 240 -152 247 -151 525 -333 637 -416 186
-140 493 -418 493 -446 0 -22 -38 -34 -173 -54 -104 -17 -200 -22 -449 -26
-344 -6 -564 5 -758 38 -263 44 -773 204 -970 304 -126 64 -30 -5 154 -110
294 -169 691 -307 1040 -362 157 -25 1021 -25 1193 0 178 25 253 69 268 155
12 75 -32 143 -159 246 -263 212 -757 516 -838 516 -22 0 -38 6 -41 14 -10 26
-513 267 -627 301 -22 6 -23 5 -10 -8z"/>
<path d="M6338 3416 c-5 -43 -7 -122 -7 -175 l2 -96 8 95 c5 52 8 131 7 175
l-3 80 -7 -79z"/>
<path d="M3050 3389 c-190 -5 -374 -12 -410 -17 -118 -15 266 -25 510 -13 198
10 369 27 379 37 2 2 -27 3 -65 2 -38 -1 -224 -5 -414 -9z"/>
<path d="M9660 3099 c73 -49 548 -249 593 -249 10 0 -341 155 -535 236 -61 25
-83 30 -58 13z"/>
<path d="M9102 2539 c152 -190 338 -486 415 -661 113 -258 243 -737 243 -899
0 -83 -10 -91 -108 -91 -83 1 -125 10 -274 61 -430 149 -1128 476 -1418 666
-52 34 -187 115 -300 180 -221 126 -397 239 -580 370 -63 45 -122 85 -130 89
-27 14 293 -298 380 -370 188 -157 418 -317 783 -546 317 -198 565 -312 1167
-536 253 -94 351 -122 434 -122 149 0 281 73 278 152 -2 42 -109 475 -156 630
-65 213 -186 469 -311 658 -35 52 -108 145 -163 205 -94 103 -298 295 -323
304 -7 2 22 -39 63 -90z"/>
<path d="M8278 2463 c35 -44 360 -365 512 -503 174 -159 73 -46 -162 180 -346
334 -388 373 -350 323z"/>
<path d="M4295 2234 c-89 -189 -164 -492 -207 -844 -21 -167 -17 -663 5 -830
36 -260 106 -474 176 -533 41 -34 89 -35 221 -7 376 80 1014 332 1328 523 116
71 526 373 647 477 111 96 293 282 323 331 33 55 60 139 71 226 26 199 23 216
-18 88 -72 -226 -184 -347 -551 -594 -358 -242 -553 -354 -840 -484 -377 -172
-709 -293 -927 -338 -162 -34 -163 -33 -222 173 -84 292 -115 550 -108 898 7
333 47 634 118 888 11 41 18 76 16 79 -3 2 -17 -21 -32 -53z"/>
<path d="M5911 1983 c-108 -65 -352 -253 -436 -338 -44 -44 -106 -114 -137
-155 -55 -73 -144 -227 -136 -235 2 -2 42 46 88 108 148 195 397 437 603 585
76 55 96 72 84 72 -1 0 -31 -17 -66 -37z"/>
<path d="M8915 1850 c10 -11 20 -20 23 -20 3 0 -3 9 -13 20 -10 11 -20 20 -23
20 -3 0 3 -9 13 -20z"/>
</g>
</svg>
