<?xml version="1.0"?>
<svg xmlns="http://www.w3.org/2000/svg" xmlns:xlink="http://www.w3.org/1999/xlink" xmlns:svgjs="http://svgjs.com/svgjs" version="1.1" width="512" height="512" x="0" y="0" viewBox="0 0 503.475 503.475" style="enable-background:new 0 0 512 512" xml:space="preserve" class=""><g><g xmlns="http://www.w3.org/2000/svg"><path d="m483.184 163.788c-9.506-11.92-21.67-20.868-35.137-26.013 4.115-8.555 6.273-17.911 6.273-27.646 0-30.612-24.338-55.645-54.68-56.768-11.638-33.854-49.702-46.973-78.695-34.119-.645-.732-15.919-19.242-43.286-19.242-15.589 0-30.245 6.07-41.268 17.094-14.068 14.068-23.131 34.448-21.629 58.004-4.492-.725-8.907 1.89-10.749 5.911l-46.68 106.83c-7.21 16.51-11.81 33.97-13.65 51.899l-5.384 52.429c-7.079-9.528-16.902-13.394-26.559-12.876-9.863.524-19.045 5.65-24.184 13.951-5.524 8.924-6.595 21.641.462 32.715l-20.709 12.22c-12.986 7.662-24.937 16.993-35.519 27.734l-21.181 21.497c-8.727 8.856-11.787 21.676-7.987 33.455 12.853 39.833 39.977 66.909 80.501 80.817 13.363 4.586 26.589-.188 34.051-7.905l21.551-21.391c10.562-10.482 19.75-22.299 27.31-35.12l11.976-20.31c11.116 6.761 23.5 5.356 32.985-1.291 8.396-5.884 12.896-14.647 13.202-23.938.294-8.916-3.161-17.643-12.866-25.587 0 0 57.666-6.12 59.841-6.27 12.325-.854 10.945-20.763-1.38-19.909-.469.032-65.06 6.75-65.06 6.75-5.99.526-14.796-.345-22.66-8.051l-16.38-16.38c-7.159-7.463-8.692-15.302-8.05-22.66l5.94-57.84c1.63-15.87 5.69-31.319 12.08-45.93l14.1-32.271c13.73 25.671 31.847 48.445 53.03 68.551 35.628 33.816 86.499 58.59 135.91 65.88-2.481 1.085-28.55 12.479-28.55 12.479-12.029 5.257-4.019 23.587 8.01 18.33l63.299-27.668c44.688-.987 80.827-37.562 80.994-82.517.074-19.69-6.77-39.167-19.272-54.844zm-282.921 219.261c5.4 4.734 5.492 11.884-1.256 16.607s-15.167-.938-15.752-7.576l-3.175-27.116c6.298 5.919 13.106 11.879 20.183 18.085zm-95.884-78.99c3.564-5.782 12.429-6.533 16.893-1.083 5.68 6.936 11.549 13.867 17.744 20.602l-27.303-3.787c-7.227-1.072-10.743-10.201-7.334-15.732zm55.993 64.057 3.921 32.728-15.485 26.262c-6.691 11.348-14.823 21.806-24.17 31.083l-21.551 21.391c-3.54 3.514-8.85 4.756-13.524 3.165-34.735-11.812-56.947-34.062-67.905-68.022-1.504-4.661-.278-9.748 3.2-13.277l21.18-21.497c9.367-9.506 19.943-17.765 31.437-24.547l27.606-16.29 31.907 4.395-67.798 40.004c-4.756 2.807-6.337 8.938-3.53 13.694 2.807 4.757 8.939 6.338 13.694 3.53l59.143-34.898-34.884 59.163c-2.805 4.758-1.231 10.904 3.535 13.693 4.563 2.671 10.885 1.316 13.693-3.535zm168.489-259.961c7.636-14.734 8.727-32.335 2.466-48.132 1.713-7.627 1.481-15.606-.697-23.137 18.069-6.939 40.338.871 48.953 20.153-15.977 6.948-27.177 22.885-27.177 41.389 0 20.032 16.297 36.329 36.329 36.329 16.403 0 29.748-13.345 29.748-29.747 0-5.522-4.477-10-10-10s-10 4.478-10 10c0 5.375-4.373 9.747-9.748 9.747-9.004 0-16.329-7.325-16.329-16.329 0-13.844 11.263-25.106 25.106-25.106 20.296 0 36.808 16.512 36.808 36.808 0 29.027-26.931 47.435-53.033 48.853-8.628-6.093-18.711-9.702-29.357-10.457-18.311-2.484-30.553-22.408-23.069-40.371zm-78.328-76.919c12.318-12.734 37.114-16.84 54.252 0 10.333 10.153 10.243 26.91 0 37.153-6.708 6.705-17.624 6.708-24.33 0-4.057-4.056-4.057-10.656 0-14.712 3.905-3.905 3.905-10.237 0-14.143-3.905-3.904-10.237-3.904-14.143 0-11.854 11.854-11.854 31.143 0 42.997 13.301 13.299 34.25 14.405 48.82 3.314-.981 8.307-4.685 16.263-10.861 22.439-14.815 14.816-39.1 14.992-53.74 0-22.948-23.501-19.594-56.791.002-77.048zm-50.299 108.372 16.95-38.79c14.721 14.546 26.03 32.13 29.93 52.681 2.76 14.619 6.91 29.039 12.34 42.859 5.48 13.97 12.34 27.49 20.37 40.17-34.62-24.74-62.14-58.25-79.59-96.92zm66.53 10.18c-.762-4.06-1.74-8.05-2.924-11.958 14.937 3.469 31.049 1.146 44.126-7.094 1.786 8.508 7.566 18.389 13.43 23.878-5.458 2.762-10.501 6.406-14.951 10.856-11.176 11.177-18.363 25.279-20.845 40.58-8.767-17.688-15.118-36.58-18.836-56.262zm107.561 106.874c-14.815 14.816-38.923 14.816-53.74 0-10.29-10.29-15.958-23.972-15.958-38.524s5.668-28.235 15.958-38.525c15.235-15.235 40.158-14.313 54.251 0 10.164 10.322 10.121 26.789 0 37.153-6.207 6.356-17.19 7.179-24.329 0-3.597-3.618-4.426-10.192 0-14.711 3.864-3.945 3.905-10.237 0-14.143-3.905-3.904-10.237-3.904-14.143 0-11.854 11.854-11.849 31.137 0 42.996 16.572 16.585 39.346 11.294 48.82 3.32-.981 8.304-4.683 16.259-10.859 22.434zm90.582 5.041c-11.53 11.991-27.745 19.466-45.583 19.466-13.353 0-26.541-1.077-39.502-3.218 7.384-4.66 15.23-13.744 18.356-20.016 11.933 10.187 29.943 9.641 41.224-1.638 3.905-3.905 3.905-10.237 0-14.143-3.905-3.904-10.296-3.962-14.143 0-3.789 3.903-10.502 4.181-14.712 0-6.641-6.597-6.69-17.774 0-24.329 5.193-5.088 16.081-9.435 27.222-10.684 11.012-1.237 20.825.66 24.994 4.831 14.31 14.31 15.021 34.771 2.144 49.731zm-29.366-74.436c-12.652 1.418-24.436 5.543-33.011 11.393.002-.157.003-.314.003-.471 0-7.578-1.81-14.877-5.224-21.405 14.016-3.097 28.855-11.226 38.851-21.902 21.155 6.029 38.142 24.422 44.051 46.499-9.986-12.65-27.201-16.076-44.67-14.114zm-112.615 150.406c0 5.525-4.479 10.004-10.004 10.004s-10.004-4.479-10.004-10.004 4.479-10.004 10.004-10.004 10.004 4.479 10.004 10.004z" fill="#ff6262" data-original="#000000" style="" class=""/></g></g></svg>
