<?xml version="1.0" standalone="no"?>
<!DOCTYPE svg PUBLIC "-//W3C//DTD SVG 20010904//EN"
 "http://www.w3.org/TR/2001/REC-SVG-20010904/DTD/svg10.dtd">
<svg version="1.0" xmlns="http://www.w3.org/2000/svg"
 width="1050.000000pt" height="1280.000000pt" viewBox="0 0 1050.000000 1280.000000"
 preserveAspectRatio="xMidYMid meet">
<g transform="translate(0.000000,1280.000000) scale(0.100000,-0.100000)"
fill="#000000" stroke="none">
<path d="M4940 12784 c-44 -12 -43 -12 32 -7 108 8 156 -11 197 -77 29 -47 66
-78 79 -66 3 4 0 12 -6 18 -15 15 -15 61 0 76 19 19 38 15 117 -23 102 -49
145 -86 177 -152 25 -51 27 -59 16 -99 -16 -59 -15 -123 3 -154 l14 -25 1 31
c0 39 31 80 66 88 35 9 47 -4 74 -79 14 -41 19 -49 16 -25 -11 68 -85 198
-153 270 -106 113 -218 175 -390 216 -112 26 -174 28 -243 8z"/>
<path d="M4835 12760 c-25 -11 1 -11 35 0 20 6 21 8 5 8 -11 0 -29 -3 -40 -8z"/>
<path d="M4724 12722 c-152 -67 -298 -180 -384 -297 -69 -93 -141 -259 -139
-319 0 -12 9 12 19 52 63 239 250 441 516 557 44 19 72 34 64 34 -8 0 -42 -12
-76 -27z"/>
<path d="M4953 12593 c15 -2 37 -2 50 0 12 2 0 4 -28 4 -27 0 -38 -2 -22 -4z"/>
<path d="M4796 12575 c-163 -45 -311 -172 -390 -336 -45 -94 -77 -196 -75
-240 0 -13 7 8 16 46 61 287 259 491 519 534 41 7 43 9 14 9 -19 0 -57 -6 -84
-13z"/>
<path d="M5043 12583 c9 -2 25 -2 35 0 9 3 1 5 -18 5 -19 0 -27 -2 -17 -5z"/>
<path d="M5175 12552 c176 -60 288 -160 330 -295 8 -24 14 -33 14 -21 3 73
-124 226 -232 281 -59 30 -153 63 -176 63 -9 0 20 -13 64 -28z"/>
<path d="M5055 12299 c-47 -53 -79 -122 -70 -156 6 -24 7 -25 20 -7 8 11 15
33 15 49 0 17 10 46 23 65 l22 35 5 -75 c3 -48 8 -70 14 -61 13 20 26 -7 19
-41 -8 -39 21 -38 42 2 21 40 19 61 -10 130 -14 33 -25 69 -25 80 0 30 -13 25
-55 -21z"/>
<path d="M5732 12225 c0 -16 2 -22 5 -12 2 9 2 23 0 30 -3 6 -5 -1 -5 -18z"/>
<path d="M5523 12165 c0 -27 2 -38 4 -22 2 15 2 37 0 50 -2 12 -4 0 -4 -28z"/>
<path d="M5743 12140 c0 -25 2 -35 4 -22 2 12 2 32 0 45 -2 12 -4 2 -4 -23z"/>
<path d="M5502 12055 c-9 -35 -26 -62 -60 -96 -72 -72 -149 -87 -237 -45 -62
29 -88 57 -89 96 -1 36 -20 45 -24 11 -5 -34 80 -113 141 -130 102 -29 209 20
260 120 16 31 27 65 25 74 -1 10 -9 -4 -16 -30z"/>
<path d="M4193 12040 c0 -25 2 -35 4 -22 2 12 2 32 0 45 -2 12 -4 2 -4 -23z"/>
<path d="M5731 12050 c-1 -14 -11 -41 -22 -60 -37 -62 -69 -88 -123 -101 -69
-16 -97 -31 -135 -75 -33 -37 -35 -60 -4 -31 43 38 123 23 139 -26 12 -38
-124 -125 -237 -152 -127 -29 -174 -15 -256 78 -36 41 -40 53 -46 147 -5 72
-21 111 -68 165 -41 46 -54 44 -29 -5 29 -57 26 -86 -15 -127 -19 -19 -40 -33
-47 -31 -8 3 -15 32 -18 83 -4 69 -8 79 -27 86 -16 6 -29 3 -44 -10 -19 -15
-24 -31 -27 -85 -4 -59 -1 -74 27 -131 40 -80 111 -146 209 -193 254 -121 522
-21 661 247 40 78 76 199 68 230 -3 9 -5 6 -6 -9z"/>
<path d="M4323 11905 c0 -38 2 -53 4 -32 2 20 2 52 0 70 -2 17 -4 1 -4 -38z"/>
<path d="M4195 11889 c13 -232 186 -528 498 -855 61 -64 97 -109 95 -120 -2
-13 9 -22 38 -33 45 -17 153 -105 142 -116 -3 -4 -36 3 -73 14 -116 36 -268
46 -492 33 -314 -19 -565 7 -765 77 -45 17 -84 28 -86 26 -7 -7 114 -63 183
-84 123 -38 210 -49 690 -82 204 -14 361 -40 500 -84 123 -39 242 -95 235
-110 -3 -5 -12 -8 -20 -7 -8 2 -64 6 -125 9 -108 5 -239 -9 -250 -28 -3 -4 26
-18 66 -30 82 -25 138 -22 209 10 57 26 141 27 195 2 48 -22 151 -111 212
-182 134 -158 236 -342 319 -582 39 -111 46 -170 12 -97 -134 290 -174 354
-293 478 -97 102 -184 169 -292 225 -96 49 -108 45 -86 -27 15 -52 10 -46 285
-311 148 -142 281 -326 329 -454 50 -134 30 -152 -26 -23 -20 48 -58 119 -82
157 -66 102 -201 230 -307 290 -48 28 -122 81 -165 119 -90 83 -180 142 -276
184 -77 33 -175 64 -175 55 0 -19 50 -81 111 -136 38 -36 69 -67 69 -70 0 -2
-69 -7 -152 -10 -184 -6 -304 -34 -442 -101 -259 -126 -406 -333 -406 -572 0
-88 16 -114 68 -114 103 0 123 107 28 148 -24 11 -50 30 -56 43 -33 60 27 201
133 315 107 115 261 200 439 245 167 41 447 36 538 -11 55 -28 118 -98 158
-175 45 -85 92 -115 182 -116 78 0 120 -18 144 -58 17 -30 18 -39 8 -90 -28
-134 -10 -176 90 -212 105 -39 109 -51 82 -229 -17 -119 -13 -155 28 -254 41
-101 49 -149 36 -228 -6 -38 -14 -68 -18 -68 -9 0 -20 76 -20 139 -1 74 -17
129 -75 247 -64 130 -139 219 -244 288 -65 44 -205 107 -233 105 -7 0 11 -9
39 -19 139 -49 255 -137 325 -244 43 -67 56 -108 67 -207 7 -71 1 -86 -20 -46
-25 46 -114 140 -172 179 -83 56 -175 96 -238 102 l-54 6 65 -15 c91 -20 215
-84 215 -110 0 -33 42 -82 84 -99 38 -15 80 -60 68 -72 -3 -3 -16 1 -29 10
-45 32 -119 8 -117 -37 l0 -22 9 22 c25 61 110 23 110 -50 0 -15 20 -45 55
-82 60 -65 87 -134 68 -177 -9 -21 -11 -19 -28 27 -23 62 -48 91 -91 105 -43
14 -104 -9 -104 -39 0 -21 0 -21 20 -1 26 26 60 25 95 -1 24 -20 26 -26 20
-63 -13 -82 -8 -120 27 -197 l35 -76 -14 -68 c-17 -82 -68 -190 -126 -265 -52
-69 -159 -170 -179 -170 -21 0 -54 39 -67 82 -17 53 -29 55 -41 6 -19 -79 -71
-168 -137 -234 -35 -35 -68 -64 -73 -64 -6 0 -7 25 -3 59 4 43 0 80 -12 130
-17 65 -17 71 -1 95 13 20 25 26 54 26 42 0 54 -6 70 -35 11 -19 11 -19 12 3
0 36 -19 62 -57 78 -43 18 -83 11 -112 -20 -33 -35 -37 -86 -13 -154 25 -72
32 -112 23 -137 -6 -15 -9 -11 -14 21 -20 123 -150 183 -271 124 -56 -26 -85
-77 -86 -146 0 -77 70 -124 113 -76 24 26 21 56 -8 90 -21 25 -23 35 -16 55
15 39 49 57 108 57 44 0 58 -5 88 -31 75 -66 66 -182 -18 -226 -29 -14 -79
-13 -121 3 -25 10 -19 -19 9 -46 35 -33 31 -47 -13 -61 -34 -10 -45 -8 -87 10
-65 29 -100 27 -122 -4 -10 -14 -25 -35 -33 -46 l-15 -20 -28 21 -28 22 7 -26
c3 -14 4 -33 0 -41 -5 -14 -11 -13 -46 5 -25 13 -49 18 -61 15 -18 -6 -19 -5
-10 14 7 13 22 21 37 21 14 0 34 5 46 11 19 10 17 12 -21 41 -45 33 -51 43
-21 35 12 -3 20 0 20 7 0 7 -9 21 -20 31 -11 10 -20 31 -20 47 0 26 2 28 21
18 11 -6 29 -26 40 -43 21 -32 21 -32 15 -4 -8 34 8 35 30 2 22 -34 29 -25 15
18 -15 45 -49 76 -102 91 -36 11 -51 23 -81 67 -48 69 -100 116 -210 187 -93
61 -118 93 -118 154 0 42 37 95 88 125 46 28 67 29 115 3 46 -25 48 -14 5 27
-143 138 -380 -12 -323 -205 21 -71 106 -149 201 -185 67 -26 183 -107 192
-134 8 -27 -29 -24 -75 5 -65 40 -114 55 -190 55 -124 0 -255 -89 -321 -218
-19 -38 -26 -69 -30 -130 -4 -78 -3 -81 35 -141 21 -34 49 -75 63 -90 79 -90
162 -90 215 0 31 53 29 78 -12 126 -23 28 -32 31 -72 30 -25 -2 -51 -2 -58 -1
-18 2 -63 84 -63 115 0 40 36 105 89 159 54 57 104 85 164 93 54 8 127 -11
127 -32 0 -9 11 -25 24 -35 14 -11 41 -52 61 -92 20 -40 46 -83 59 -97 12 -14
23 -39 24 -56 2 -25 -3 -33 -32 -47 -51 -24 -89 -79 -90 -132 -2 -105 128
-181 198 -116 48 45 42 134 -7 115 -21 -8 -22 -32 -2 -54 22 -24 -6 -60 -47
-60 -73 0 -130 72 -109 140 11 38 29 60 53 64 7 1 23 7 35 14 32 18 71 15 120
-9 87 -42 90 -81 15 -181 -302 -400 -280 -810 54 -1028 193 -126 399 -118 528
20 82 88 114 183 126 377 5 90 12 131 27 162 24 48 10 55 -29 14 -37 -39 -48
-74 -48 -154 0 -39 -4 -69 -10 -69 -5 0 -10 9 -10 19 0 35 -78 121 -133 147
-157 73 -326 -35 -302 -192 10 -69 86 -144 145 -144 44 0 89 31 110 75 25 51
19 91 -16 107 -63 29 -106 -51 -51 -94 21 -16 21 -17 3 -37 -54 -59 -166 20
-166 117 0 51 19 91 59 125 104 87 260 36 320 -104 26 -58 30 -161 11 -226
-18 -58 -77 -132 -134 -167 -39 -24 -63 -31 -116 -34 -100 -6 -129 8 -207 94
-72 81 -98 99 -183 123 -51 15 -57 20 -82 71 -49 98 -60 239 -27 349 16 53 64
110 108 128 42 18 51 29 51 64 0 27 -27 59 -50 59 -19 0 -5 57 26 103 63 96
177 113 266 42 95 -77 185 -102 248 -70 33 17 60 52 60 76 0 14 -7 11 -29 -12
-25 -25 -37 -29 -83 -29 -109 0 -148 58 -114 167 55 173 252 229 373 106 49
-51 67 -99 60 -157 l-6 -41 20 23 c61 76 42 198 -45 281 -20 19 -36 38 -36 42
0 4 25 13 56 19 31 7 84 27 119 45 130 69 176 60 311 -63 53 -48 107 -103 120
-122 35 -51 32 -11 -6 67 -79 168 -232 247 -428 223 -41 -6 -77 -8 -80 -6 -2
3 20 12 48 20 29 9 58 22 64 31 34 47 272 44 433 -4 58 -18 123 -31 150 -30
l48 1 -45 12 c-25 7 -81 32 -125 55 -128 66 -242 82 -364 51 -19 -5 -36 -8
-38 -6 -2 2 34 36 80 77 108 94 229 239 339 404 90 135 122 165 178 165 23 0
40 9 64 35 39 41 74 45 124 15 40 -25 41 -48 2 -85 -36 -35 -39 -52 -5 -29 14
9 32 13 41 10 15 -6 15 -9 -3 -29 -21 -23 -37 -65 -48 -129 -3 -23 -16 -45
-33 -58 l-27 -21 62 5 c63 6 63 6 79 -27 44 -87 145 -148 216 -129 l33 8 -38
18 c-60 29 -79 65 -89 170 -17 167 -19 175 -51 223 -20 30 -53 60 -87 80 -46
28 -63 33 -120 33 -65 0 -106 -14 -177 -60 -12 -8 -24 -12 -27 -9 -3 2 9 47
25 99 34 106 47 201 57 402 7 131 8 138 37 180 23 32 49 52 105 79 85 42 110
68 110 116 0 23 8 42 25 58 48 49 134 21 123 -39 -3 -14 -1 -23 3 -20 19 12 8
57 -21 84 -16 15 -26 30 -23 34 12 11 150 6 197 -8 243 -73 357 -399 213 -612
-42 -63 -118 -120 -187 -140 -30 -8 -64 -18 -75 -21 -16 -4 -14 1 11 28 66 70
81 147 48 244 -50 147 -238 193 -346 85 -36 -35 -38 -42 -38 -98 0 -41 5 -63
15 -72 13 -11 15 -7 15 24 0 40 22 59 80 70 23 4 48 21 76 51 27 30 49 45 65
45 112 0 186 -214 103 -301 -42 -44 -144 -89 -222 -99 -63 -7 -60 -7 48 -9
138 -1 212 15 285 63 112 75 184 181 205 302 6 32 15 81 20 107 13 64 13 172
-1 220 -13 47 -63 106 -106 123 -18 8 -63 14 -100 14 -76 0 -104 13 -128 61
-14 25 -21 29 -60 29 -104 0 -212 -40 -286 -107 -42 -38 -59 -38 -42 0 17 36
0 221 -27 290 -30 80 -112 199 -171 250 -69 59 -144 154 -176 223 -22 47 -28
73 -27 129 l0 69 -18 -39 c-9 -22 -18 -60 -18 -85 l-1 -45 -23 29 c-28 33 -66
142 -66 187 0 77 54 140 127 146 65 6 103 -9 103 -41 0 -30 16 -42 35 -26 40
33 -59 87 -141 77 -54 -6 -90 -29 -116 -77 -16 -30 -18 -47 -13 -112 4 -43 4
-78 2 -78 -12 0 -47 70 -57 113 -9 42 -7 54 15 107 25 60 30 95 18 139 -6 23
-6 23 -19 -7 -13 -31 -67 -68 -84 -57 -5 3 -14 20 -20 38 -9 31 -10 31 -4 -8
3 -22 14 -68 25 -102 26 -78 22 -114 -7 -64 -10 19 -37 51 -58 70 -22 20 -67
63 -101 96 -99 97 -203 186 -315 270 -129 97 -200 164 -296 277 -93 111 -163
214 -219 325 -25 49 -45 84 -45 78 0 -18 81 -168 142 -263 34 -51 58 -95 56
-98 -3 -2 -28 19 -55 48 -193 203 -305 418 -333 638 l-9 75 4 -76z m1566
-1898 c130 -182 196 -364 206 -566 5 -108 -6 -227 -23 -244 -11 -11 -21 22
-28 89 -20 216 -100 492 -213 727 -29 62 -53 116 -53 120 0 15 53 -45 111
-126z m-103 -1193 c31 -40 32 -45 26 -107 -7 -87 -12 -111 -24 -111 -6 0 -10
24 -10 53 0 28 -9 81 -20 115 -33 104 -25 118 28 50z m-1421 -1183 c3 -9 3
-19 -1 -22 -7 -7 -36 16 -36 28 0 15 30 10 37 -6z"/>
<path d="M4332 11780 c0 -14 2 -19 5 -12 2 6 2 18 0 25 -3 6 -5 1 -5 -13z"/>
<path d="M4342 11725 c0 -11 3 -29 8 -40 11 -25 11 1 0 35 -6 20 -8 21 -8 5z"/>
<path d="M4361 11650 c0 -8 6 -28 14 -45 17 -39 18 -21 0 25 -7 19 -14 28 -14
20z"/>
<path d="M3864 11368 c8 -13 33 -77 56 -143 65 -186 115 -262 204 -307 56 -29
151 -34 257 -14 47 9 123 16 169 16 l83 0 -39 26 c-66 44 -104 86 -169 184
-70 107 -110 148 -175 182 -40 21 -58 23 -176 23 -127 0 -131 1 -163 28 -42
35 -68 38 -47 5z m508 -205 c9 -10 22 -38 29 -63 9 -32 30 -61 68 -99 l55 -54
-39 5 c-72 11 -95 24 -95 58 0 37 -35 62 -86 62 -48 0 -60 -13 -43 -48 22 -45
58 -64 132 -71 109 -10 78 -33 -46 -33 -80 0 -120 15 -164 61 -36 38 -86 140
-81 165 2 13 18 17 71 19 38 2 71 6 75 9 3 3 29 6 57 6 37 0 56 -5 67 -17z"/>
<path d="M5798 11203 c23 -2 59 -2 80 0 20 2 1 4 -43 4 -44 0 -61 -2 -37 -4z"/>
<path d="M5642 11165 c-86 -41 -174 -120 -208 -187 -34 -68 -29 -73 7 -8 53
96 146 171 263 212 28 9 42 17 31 18 -11 0 -53 -16 -93 -35z"/>
<path d="M5965 11182 c164 -56 265 -182 253 -313 -4 -34 -16 -64 -41 -101 -21
-29 -37 -64 -37 -77 0 -15 23 -47 67 -93 60 -61 68 -74 68 -108 0 -53 14 -35
22 27 4 37 0 66 -16 111 -15 44 -20 85 -20 149 0 135 -35 225 -123 313 -44 44
-166 110 -203 110 -11 -1 3 -8 30 -18z"/>
<path d="M5140 11127 c0 -97 53 -286 116 -409 l29 -57 2 129 c2 106 -1 139
-15 178 -19 50 -88 158 -116 181 -14 12 -16 9 -16 -22z"/>
<path d="M5397 10888 c-3 -13 -8 -50 -11 -83 -4 -53 -3 -51 9 20 13 73 14 115
2 63z"/>
<path d="M5392 10685 c0 -16 2 -22 5 -12 2 9 2 23 0 30 -3 6 -5 -1 -5 -18z"/>
<path d="M6927 10623 c-4 -3 -7 -17 -7 -30 0 -84 -64 -298 -136 -450 -23 -51
-39 -93 -35 -93 16 0 87 53 140 103 105 102 124 197 75 377 -29 105 -28 103
-37 93z"/>
<path d="M6260 10132 c0 -25 -12 -46 -56 -93 -31 -33 -62 -76 -70 -95 -21 -50
-17 -134 12 -231 19 -64 24 -101 20 -138 l-5 -50 34 40 c34 39 39 59 10 35
-13 -11 -15 -7 -15 31 0 28 -9 62 -25 91 -14 26 -25 52 -25 59 0 6 30 41 66
76 63 62 66 64 84 48 28 -25 53 -110 46 -153 -3 -20 -15 -49 -27 -65 l-21 -29
25 17 c36 23 77 86 84 128 10 64 -7 120 -72 242 -55 103 -64 115 -65 87z"/>
<path d="M6232 9772 c-27 -27 -28 -56 -3 -88 16 -20 21 -22 30 -10 20 23 24
79 8 100 -14 19 -14 19 -35 -2z"/>
<path d="M4725 9444 c-129 -31 -230 -82 -313 -159 -107 -100 -152 -208 -152
-368 0 -83 -2 -92 -29 -126 -15 -20 -33 -46 -40 -59 -16 -29 -17 -97 -3 -147
14 -50 15 -120 2 -146 -15 -27 0 -25 65 12 61 34 102 77 112 117 12 49 -13
151 -47 194 -40 49 -50 85 -50 173 0 132 45 240 140 335 93 93 264 166 430
183 29 3 27 4 -10 5 -25 0 -72 -6 -105 -14z m-430 -721 l-8 -48 -9 43 c-11 50
-4 82 14 64 7 -7 8 -27 3 -59z"/>
<path d="M4963 9453 c15 -2 39 -2 55 0 15 2 2 4 -28 4 -30 0 -43 -2 -27 -4z"/>
<path d="M5063 9443 c9 -2 23 -2 30 0 6 3 -1 5 -18 5 -16 0 -22 -2 -12 -5z"/>
<path d="M5118 9433 c7 -3 16 -2 19 1 4 3 -2 6 -13 5 -11 0 -14 -3 -6 -6z"/>
<path d="M5053 9203 c9 -2 23 -2 30 0 6 3 -1 5 -18 5 -16 0 -22 -2 -12 -5z"/>
<path d="M4910 9181 c-130 -42 -220 -117 -278 -231 -42 -81 -47 -124 -28 -236
12 -78 21 -100 56 -152 66 -97 130 -132 235 -132 58 0 66 3 81 25 14 21 15 31
6 51 -22 46 -81 44 -104 -4 -22 -46 -105 -42 -162 9 -43 37 -106 189 -106 252
1 71 25 172 52 218 32 54 111 130 164 157 42 22 130 49 179 55 28 4 28 4 -5 5
-19 0 -60 -7 -90 -17z"/>
<path d="M5324 8445 c-23 -28 -51 -70 -63 -94 -29 -57 -60 -175 -66 -254 l-5
-62 18 61 c21 70 49 114 86 134 15 7 25 18 23 24 -2 6 7 25 19 44 25 37 37 96
32 157 l-3 39 -41 -49z"/>
<path d="M4681 8230 c35 -48 49 -93 49 -159 0 -33 8 -73 19 -96 27 -59 101
-149 113 -137 9 9 6 23 -43 178 -22 70 -108 212 -141 234 -22 14 -22 13 3 -20z"/>
<path d="M6440 8249 c-27 -11 -90 -68 -90 -81 0 -4 17 1 37 12 48 26 69 25
115 -3 54 -32 88 -83 88 -130 0 -55 -23 -87 -93 -132 -100 -63 -195 -138 -206
-162 -6 -13 -19 -23 -28 -23 -17 0 -87 58 -95 78 -7 18 -171 93 -216 98 -35 4
-43 3 -32 -5 8 -6 22 -11 31 -11 9 0 33 -11 53 -25 20 -13 42 -22 50 -19 8 3
25 0 38 -6 35 -18 148 -132 148 -150 0 -8 -9 -39 -20 -68 -24 -63 -25 -99 -4
-188 16 -73 34 -113 58 -133 13 -11 13 -7 0 36 -18 57 -12 122 16 188 11 25
26 48 35 51 11 5 50 -29 128 -108 62 -63 127 -120 145 -127 38 -16 39 -23 10
-79 l-23 -43 26 -47 c29 -54 78 -84 122 -75 42 8 129 94 165 161 28 52 32 70
32 136 l0 76 40 26 c27 18 47 24 64 20 22 -5 24 -2 29 32 3 20 11 56 18 79 11
37 11 47 -4 77 -9 19 -28 43 -42 52 -25 16 -27 16 -53 -3 -26 -19 -28 -19 -67
-2 -44 20 -90 24 -100 9 -3 -5 0 -10 9 -10 26 0 77 -52 106 -110 25 -49 27
-60 17 -81 -17 -33 -50 -36 -64 -7 -24 52 -95 118 -165 153 -39 19 -77 35 -84
35 -8 0 -14 5 -14 11 0 15 -131 0 -151 -17 -8 -8 -20 -14 -26 -14 -5 0 -32
-16 -59 -35 -43 -30 -50 -33 -63 -20 -13 13 -12 18 10 41 13 14 37 33 53 41
16 8 38 23 48 33 11 10 47 28 81 40 60 22 155 98 179 145 52 96 9 223 -93 276
-41 21 -117 24 -159 8z m206 -587 c46 -24 125 -104 147 -148 21 -41 8 -54 -53
-54 -90 0 -205 42 -312 113 -53 35 -59 55 -25 76 69 44 173 49 243 13z m-346
-40 c0 -10 -11 -29 -25 -42 -23 -22 -25 -22 -25 -4 0 22 26 64 41 64 5 0 9 -8
9 -18z m257 -153 c34 -16 77 -24 153 -28 115 -7 129 -16 91 -62 l-19 -24 -78
23 c-83 25 -195 80 -202 100 -5 16 -1 15 55 -9z"/>
<path d="M3668 8223 c-37 -40 -49 -118 -25 -159 14 -25 76 -79 82 -72 3 3 1
18 -5 34 -6 16 -16 71 -23 122 -12 89 -13 93 -29 75z"/>
<path d="M6805 8158 c-4 -46 -13 -101 -21 -123 -7 -21 -11 -41 -9 -43 6 -7 68
48 82 72 25 42 8 133 -29 164 -14 11 -17 3 -23 -70z"/>
<path d="M2980 8170 c25 -6 70 -15 100 -21 86 -18 154 -55 212 -117 89 -96
173 -159 230 -175 91 -26 156 -37 258 -43 112 -8 124 0 63 41 -21 14 -78 54
-128 90 -49 36 -115 77 -145 91 -30 14 -83 39 -116 55 -81 39 -272 78 -409 84
-87 4 -101 3 -65 -5z"/>
<path d="M7335 8165 c-141 -22 -228 -45 -305 -82 -41 -20 -82 -36 -90 -36 -8
0 -31 -12 -50 -27 -36 -29 -168 -122 -232 -165 -21 -14 -38 -29 -38 -34 0 -13
91 -21 130 -11 19 5 67 14 105 20 160 26 221 61 353 202 58 62 126 99 212 117
30 6 75 15 100 20 43 8 41 9 -30 9 -41 0 -111 -6 -155 -13z"/>
<path d="M5297 8103 c-11 -10 -8 -38 5 -51 13 -13 37 12 38 41 0 17 -30 24
-43 10z"/>
<path d="M4892 8034 c-13 -9 -22 -26 -22 -42 0 -26 1 -26 26 11 29 44 28 54
-4 31z"/>
<path d="M1039 7974 c15 -18 21 -41 21 -73 0 -26 5 -52 12 -59 19 -19 76 -14
98 8 43 43 16 91 -73 129 -68 29 -84 28 -58 -5z"/>
<path d="M9400 7979 c-86 -39 -112 -87 -70 -129 24 -24 82 -27 101 -4 7 9 12
35 11 59 -1 30 5 51 19 69 19 24 19 26 2 25 -10 0 -38 -9 -63 -20z"/>
<path d="M6230 7920 c0 -5 5 -10 10 -10 6 0 10 5 10 10 0 6 -4 10 -10 10 -5 0
-10 -4 -10 -10z"/>
<path d="M4633 7888 c-27 -13 -30 -28 -5 -28 35 1 123 26 116 33 -11 11 -86 7
-111 -5z"/>
<path d="M3582 7749 c-53 -27 -94 -76 -121 -146 -23 -59 -27 -93 -11 -93 22 0
89 73 119 129 32 61 81 111 107 111 9 0 12 5 9 10 -10 16 -57 11 -103 -11z"/>
<path d="M5547 7586 c28 -20 69 -57 90 -83 95 -119 192 -188 282 -200 80 -11
171 62 171 137 0 12 10 38 22 59 22 38 22 39 4 80 -17 36 -23 41 -50 40 -22
-1 -25 -3 -9 -6 47 -9 54 -61 11 -84 -16 -9 -29 -7 -61 7 l-40 18 -58 -32
c-43 -24 -70 -32 -106 -32 -48 0 -61 6 -213 92 -73 42 -102 44 -43 4z"/>
<path d="M1466 7421 c-26 -5 -28 -7 -12 -20 9 -8 19 -11 23 -8 7 8 103 -44
103 -55 0 -11 -11 -10 -49 3 -43 15 -48 7 -20 -31 59 -79 145 -91 235 -33 44
29 45 31 23 38 -13 4 -48 25 -77 47 -87 65 -139 78 -226 59z"/>
<path d="M8893 7415 c-18 -7 -56 -31 -85 -53 -29 -22 -64 -43 -77 -47 -22 -7
-21 -9 23 -38 89 -57 176 -46 234 32 31 43 28 52 -13 35 -38 -16 -55 -18 -55
-6 0 11 96 63 103 55 4 -3 14 0 23 8 16 13 14 15 -12 20 -50 11 -108 9 -141
-6z"/>
<path d="M5322 7317 c-40 -43 -74 -135 -75 -202 -1 -54 4 -71 29 -111 16 -26
40 -54 52 -62 24 -16 24 -15 -2 23 -35 51 -33 67 14 114 47 46 50 68 16 141
-19 41 -22 58 -15 83 11 39 7 42 -19 14z"/>
<path d="M5755 7329 c-10 -16 4 -113 27 -189 32 -103 139 -290 167 -290 17 0
24 110 12 181 -6 38 -22 92 -35 121 -37 83 -155 205 -171 177z"/>
<path d="M5920 7196 c0 -30 110 -106 188 -130 68 -22 -34 90 -114 124 -54 24
-74 25 -74 6z"/>
<path d="M5990 7049 c0 -52 30 -100 112 -181 82 -83 104 -95 94 -53 -27 106
-83 200 -145 242 -46 31 -61 29 -61 -8z"/>
<path d="M1532 6897 c-3 -50 -29 -87 -62 -87 -57 0 -80 -56 -35 -86 23 -15 27
-15 49 -1 34 22 58 92 53 153 -2 27 -4 36 -5 21z"/>
<path d="M8964 6860 c6 -108 51 -169 102 -135 44 29 21 85 -36 85 -32 0 -48
21 -61 80 -6 26 -7 18 -5 -30z"/>
<path d="M5016 6860 c-19 -17 -40 -47 -47 -67 -14 -43 -7 -198 12 -258 l13
-40 11 100 c7 57 8 107 3 117 -4 9 -8 33 -8 53 0 41 32 80 75 91 36 9 102 -12
131 -41 32 -32 31 -6 -1 29 -52 56 -135 63 -189 16z"/>
<path d="M4750 6813 c0 -31 8 -60 25 -89 32 -55 136 -129 135 -96 0 4 -14 31
-30 61 -37 68 -37 72 0 36 26 -25 30 -26 30 -10 0 31 -50 94 -95 121 -58 34
-65 31 -65 -23z"/>
<path d="M5699 6795 c-55 -20 -110 -58 -151 -103 -75 -83 -105 -177 -118 -363
-6 -100 -13 -139 -29 -169 -25 -48 -9 -54 31 -12 37 38 48 73 48 153 0 39 4
69 10 69 6 0 10 -10 10 -21 0 -12 19 -44 42 -72 102 -122 275 -130 357 -17 53
73 53 155 -2 216 -55 64 -102 77 -164 47 -42 -19 -79 -89 -69 -129 9 -33 48
-51 81 -36 34 16 35 73 3 95 -23 14 -23 15 -4 36 54 60 166 -19 166 -117 0
-51 -19 -91 -59 -125 -49 -41 -95 -52 -159 -37 -178 40 -247 293 -123 456 54
72 118 108 201 112 100 6 129 -8 207 -94 72 -81 98 -99 183 -123 51 -15 57
-20 82 -71 70 -139 58 -349 -25 -439 -12 -13 -41 -32 -64 -42 -39 -17 -43 -22
-43 -53 0 -29 -5 -38 -30 -51 -43 -22 -72 -85 -68 -149 3 -48 1 -51 -22 -54
-39 -6 -99 17 -139 53 -75 68 -169 92 -231 60 -33 -17 -60 -52 -60 -76 0 -14
7 -11 29 12 25 25 37 29 83 29 109 0 148 -58 114 -167 -54 -172 -251 -228
-372 -107 -48 47 -69 100 -61 155 7 51 -5 50 -29 -3 -39 -87 -16 -184 60 -257
20 -19 36 -38 36 -42 0 -4 -25 -13 -56 -19 -31 -7 -84 -27 -119 -45 -132 -71
-176 -61 -321 72 -58 53 -111 108 -119 122 -28 52 -16 -11 15 -76 79 -168 232
-247 428 -223 41 6 77 8 80 6 2 -3 -21 -12 -51 -21 -30 -9 -57 -22 -60 -29 -3
-7 -36 -19 -73 -26 -97 -18 -238 -8 -349 26 -49 15 -117 29 -150 31 l-60 2 45
-13 c25 -7 81 -32 125 -55 128 -66 242 -82 364 -51 19 5 36 8 38 6 2 -2 -34
-36 -80 -77 -108 -96 -221 -229 -337 -402 -96 -142 -122 -167 -180 -167 -23 0
-40 -10 -64 -35 -39 -41 -74 -45 -123 -15 -41 25 -42 48 -3 85 35 34 40 53 8
31 -46 -33 -62 -15 -29 32 11 15 25 54 31 87 8 44 19 66 38 83 l27 24 -62 -6
-63 -6 -16 33 c-44 87 -140 144 -215 128 l-34 -8 36 -15 c67 -29 99 -101 99
-224 0 -90 22 -153 70 -203 100 -103 220 -110 357 -21 12 8 24 12 27 10 5 -5
-39 -164 -50 -181 -9 -15 -25 -169 -33 -319 -9 -182 -28 -214 -162 -273 -64
-28 -89 -57 -89 -103 0 -48 -34 -84 -79 -84 -40 0 -65 19 -74 55 -4 17 -5 17
-6 -3 -1 -15 11 -35 29 -52 16 -15 26 -30 23 -34 -12 -11 -150 -6 -197 8 -208
63 -328 312 -253 527 41 118 124 195 244 230 37 10 69 17 71 14 3 -3 -7 -15
-23 -27 -39 -30 -65 -93 -63 -153 l1 -50 6 55 c4 30 12 65 19 77 31 55 141
110 247 123 52 6 45 7 -55 9 -139 1 -212 -15 -287 -65 -157 -104 -215 -231
-230 -507 -6 -100 8 -152 53 -201 38 -40 83 -56 163 -56 74 0 101 -13 124 -60
12 -24 17 -25 94 -24 68 1 91 6 146 31 35 17 83 48 106 68 44 40 61 41 44 2
-16 -35 -7 -183 16 -258 32 -100 87 -184 196 -295 148 -152 202 -256 190 -364
l-5 -45 20 40 c11 22 20 57 20 78 0 20 5 37 11 37 18 0 70 -126 75 -182 6 -65
-15 -112 -65 -145 -59 -40 -161 -26 -161 21 0 32 -18 43 -37 23 -20 -19 -11
-32 37 -57 74 -38 169 -18 214 43 18 24 21 42 19 118 0 49 2 87 6 85 4 -3 17
-25 30 -51 29 -57 29 -117 2 -175 -21 -46 -26 -87 -14 -129 6 -23 6 -23 19 7
15 36 70 70 87 53 6 -6 16 -39 23 -73 l14 -63 -6 53 c-2 29 -16 91 -30 139
-29 99 -28 137 2 84 10 -19 37 -51 58 -70 21 -20 67 -63 100 -96 101 -98 204
-186 321 -274 131 -99 192 -156 290 -273 96 -114 149 -191 212 -313 29 -55 52
-97 53 -92 0 17 -92 189 -144 267 -31 46 -55 88 -53 93 5 17 149 -146 209
-237 68 -103 113 -193 144 -291 13 -38 23 -63 24 -54 0 26 -45 150 -83 224
-74 147 -304 443 -460 594 -35 34 -44 48 -36 58 9 10 5 15 -16 23 -14 5 -30
10 -35 10 -15 0 -143 114 -132 118 6 2 41 -6 77 -17 116 -36 269 -46 492 -33
311 19 566 -7 765 -78 45 -16 84 -27 86 -25 7 7 -113 63 -178 83 -36 11 -108
27 -160 35 -90 15 -158 21 -530 47 -203 14 -375 43 -508 85 -119 38 -237 95
-231 110 2 6 11 8 19 7 8 -2 64 -6 125 -9 108 -5 239 9 250 28 3 4 -26 18 -66
30 -82 25 -138 22 -209 -10 -85 -39 -179 -24 -261 40 -180 143 -342 385 -447
669 -41 110 -60 186 -44 176 5 -3 17 -27 27 -53 31 -85 125 -260 176 -330 73
-101 193 -217 289 -281 102 -69 187 -109 199 -96 5 5 3 30 -6 57 -15 51 -87
130 -257 281 -180 161 -361 432 -383 576 -8 52 10 29 53 -70 20 -47 57 -116
81 -155 66 -102 200 -229 307 -290 48 -27 122 -81 165 -119 91 -83 186 -146
278 -185 77 -33 173 -63 173 -54 0 19 -50 81 -111 136 -38 36 -69 67 -69 70 0
2 69 7 153 10 184 6 306 34 442 101 207 102 335 244 384 424 25 95 28 208 5
240 -20 28 -93 31 -116 5 -44 -50 -29 -105 36 -133 25 -10 50 -29 56 -41 46
-85 -80 -296 -245 -414 -193 -138 -491 -203 -756 -165 -83 12 -97 17 -148 56
-59 45 -74 63 -124 159 -41 76 -72 94 -182 105 -136 14 -166 46 -146 156 25
137 10 166 -104 211 -91 37 -94 45 -71 208 19 140 16 168 -27 270 -16 39 -33
90 -37 115 -9 48 7 180 21 180 5 0 9 -3 9 -7 3 -113 23 -239 48 -304 89 -223
250 -382 462 -454 40 -14 81 -25 89 -25 9 1 -16 11 -54 24 -215 69 -372 220
-404 389 -23 124 -19 170 10 115 7 -13 35 -50 63 -82 84 -98 239 -187 349
-201 28 -4 18 1 -31 14 -79 22 -191 77 -193 95 -1 6 -1 15 0 19 3 19 -53 76
-88 91 -34 13 -81 61 -81 81 0 4 15 -3 34 -14 18 -12 44 -21 57 -21 34 0 69
27 68 53 l0 22 -9 -22 c-25 -61 -110 -23 -110 50 0 16 -19 44 -54 80 -54 57
-81 118 -74 168 5 37 18 29 35 -21 29 -86 91 -124 157 -96 33 14 36 18 35 53
-2 31 -3 33 -6 10 -8 -49 -77 -61 -118 -20 -13 12 -15 26 -10 57 13 82 8 120
-28 198 l-35 76 14 67 c17 80 70 191 127 265 52 69 159 170 179 170 21 0 54
-39 67 -82 17 -53 29 -55 41 -6 19 79 71 168 137 234 35 35 68 64 73 64 6 0 7
-25 3 -60 -4 -43 -1 -79 11 -124 22 -79 10 -119 -38 -124 -43 -5 -74 6 -81 29
-5 14 -10 18 -17 11 -15 -15 18 -69 53 -88 40 -20 88 -12 118 20 32 34 37 90
13 151 -24 62 -35 126 -24 143 7 10 11 2 15 -25 20 -122 151 -182 271 -123 37
17 53 32 67 64 38 85 12 176 -50 176 -59 0 -80 -64 -36 -110 22 -22 24 -31 16
-52 -15 -39 -49 -58 -104 -58 -63 0 -102 24 -128 78 -47 97 22 204 122 188 20
-3 44 -9 53 -12 25 -10 19 19 -9 46 -35 33 -31 47 13 61 34 10 45 8 87 -10 65
-29 100 -27 122 4 10 14 25 35 33 46 l15 20 28 -21 28 -22 -7 26 c-3 14 -4 33
0 41 5 14 11 13 47 -6 34 -17 46 -19 66 -10 13 6 37 11 54 11 21 0 42 12 73
40 39 36 49 40 94 40 28 0 91 9 139 21 78 18 187 31 280 32 65 1 128 -69 143
-158 7 -45 6 -63 -5 -85 -19 -37 -60 -68 -99 -75 -45 -9 -113 20 -132 56 -16
32 -13 35 35 41 36 5 49 32 31 65 -20 36 -32 38 -63 9 -20 -18 -27 -35 -27
-61 0 -25 -4 -35 -15 -35 -11 0 -14 -7 -9 -24 9 -38 -5 -66 -39 -81 l-32 -14
32 -1 c30 0 63 27 76 63 3 8 12 5 28 -9 70 -62 146 -59 217 9 39 38 55 90 46
156 -11 86 -31 107 -149 156 -33 13 -37 18 -24 25 57 32 226 -100 251 -196
l13 -46 10 54 c8 42 15 55 36 65 38 19 93 -1 149 -53 26 -24 51 -44 57 -44 34
0 141 -192 193 -345 44 -131 80 -196 145 -261 49 -50 72 -65 124 -81 l64 -21
50 27 c52 28 87 76 87 118 0 30 16 29 32 -1 12 -22 15 -23 32 -11 14 11 17 22
13 45 -7 33 11 42 33 15 18 -22 50 -19 50 5 0 36 -37 62 -83 59 -68 -3 -75 -1
-116 36 -42 38 -62 42 -101 20 l-25 -14 26 -1 c14 0 34 -6 45 -14 19 -14 18
-15 -8 -43 -35 -36 -48 -73 -48 -132 0 -66 -15 -78 -77 -60 -87 24 -163 128
-207 284 -54 189 -82 263 -125 325 -25 36 -58 85 -74 109 -34 49 -124 119
-211 163 -33 17 -71 39 -85 49 -21 15 -51 20 -156 25 -110 5 -146 2 -234 -16
-57 -11 -119 -27 -136 -34 -24 -10 -45 -11 -80 -5 -55 10 -64 7 -44 -17 12
-14 10 -19 -10 -35 -38 -31 -58 -25 -65 21 -12 73 -99 142 -158 125 -38 -12
-68 -47 -74 -87 -7 -39 -23 -48 -43 -24 -9 11 0 33 49 105 128 192 180 334
180 496 0 202 -86 362 -258 479 -124 85 -290 119 -393 81z m446 -925 c24 -27
14 -60 -34 -111 -55 -57 -76 -51 -76 23 0 46 5 62 24 82 29 31 61 33 86 6z
m166 -167 c34 -20 63 -75 54 -103 -5 -16 -15 -20 -55 -20 -68 0 -100 13 -93
40 3 12 -2 29 -12 40 -17 19 -17 21 0 40 22 25 67 26 106 3z m-150 -108 c27
-14 75 -31 106 -38 31 -8 59 -19 61 -25 6 -20 -67 -45 -115 -39 -77 8 -152 77
-128 116 9 16 20 14 76 -14z m977 4 c31 -11 49 -40 37 -59 -13 -21 -54 -10
-74 19 -36 50 -25 62 37 40z m868 -680 c0 -13 4 -31 8 -40 9 -21 -7 -62 -35
-88 -43 -39 -53 -15 -19 41 24 40 25 48 5 48 -19 0 -19 20 1 48 19 28 39 24
40 -9z m-3156 -751 c0 -29 9 -82 20 -116 32 -102 21 -116 -33 -44 -26 34 -28
41 -22 102 8 86 13 110 25 110 6 0 10 -24 10 -52z m-276 -570 c2 -13 9 -61 16
-108 30 -224 107 -480 207 -687 30 -63 53 -116 50 -119 -16 -16 -169 205 -226
327 -63 135 -85 240 -86 399 0 138 9 210 25 210 5 0 12 -10 14 -22z"/>
<path d="M621 6754 c0 -11 3 -14 6 -6 3 7 2 16 -1 19 -3 4 -6 -2 -5 -13z"/>
<path d="M2937 6682 c-47 -4 -38 -22 11 -22 43 0 75 15 45 21 -10 2 -35 3 -56
1z"/>
<path d="M7504 6679 c-16 -5 -16 -6 0 -12 25 -10 84 -9 90 2 7 11 -66 19 -90
10z"/>
<path d="M2740 6658 c-46 -10 -97 -38 -70 -38 27 0 123 29 133 39 13 13 0 13
-63 -1z"/>
<path d="M7697 6659 c10 -10 106 -39 133 -39 30 0 -25 28 -78 39 -65 14 -69
14 -55 0z"/>
<path d="M3240 6615 c0 -2 26 -21 58 -42 91 -60 85 -58 72 -33 -18 34 -130 99
-130 75z"/>
<path d="M7192 6591 c-39 -26 -97 -88 -61 -65 64 41 129 85 129 89 0 12 -29 2
-68 -24z"/>
<path d="M900 6406 c0 -2 8 -10 18 -17 15 -13 16 -12 3 4 -13 16 -21 21 -21
13z"/>
<path d="M2089 6344 c-29 -32 -234 -133 -344 -170 -62 -20 -107 -27 -200 -31
-115 -5 -157 0 -274 33 -16 5 -22 4 -18 -4 4 -5 1 -13 -5 -15 -10 -4 -10 -8 1
-15 11 -8 11 -10 0 -15 -32 -11 77 -22 216 -21 127 1 165 5 247 27 112 30 238
89 323 152 32 24 71 49 86 56 16 6 26 15 23 20 -10 16 -30 9 -55 -17z"/>
<path d="M8356 6362 c-3 -5 11 -16 30 -25 19 -10 59 -35 87 -56 113 -86 264
-145 440 -172 85 -13 287 -7 327 9 14 6 18 11 10 12 -13 0 -13 1 0 11 11 8 12
12 2 16 -6 2 -9 10 -5 15 4 8 -2 9 -18 4 -117 -33 -159 -38 -274 -33 -94 4
-137 11 -200 32 -112 37 -315 137 -344 169 -25 26 -45 33 -55 18z"/>
<path d="M5494 6208 c-4 -51 -7 -100 -5 -108 15 -74 12 -99 -12 -124 -14 -14
-37 -28 -52 -32 -36 -9 -96 10 -128 40 -34 32 -36 9 -2 -28 50 -54 134 -63
186 -19 44 37 59 80 59 165 0 65 -20 181 -32 194 -3 2 -9 -37 -14 -88z"/>
<path d="M3231 6202 c29 -34 44 -103 29 -132 -14 -27 -12 -34 5 -20 20 16 20
92 0 130 -8 16 -25 35 -37 41 -21 11 -20 10 3 -19z"/>
<path d="M7267 6219 c-43 -25 -65 -142 -32 -169 17 -14 19 -7 5 20 -15 28 -1
98 27 131 27 32 27 34 0 18z"/>
<path d="M3522 6200 c0 -14 2 -19 5 -12 2 6 2 18 0 25 -3 6 -5 1 -5 -13z"/>
<path d="M6973 6160 c0 -36 2 -50 4 -32 2 17 2 47 0 65 -2 17 -4 3 -4 -33z"/>
<path d="M7499 6180 c18 -33 27 -90 23 -151 -1 -14 -18 -52 -37 -85 l-35 -59
38 42 c36 39 62 97 62 139 0 38 -22 95 -46 121 l-25 28 20 -35z"/>
<path d="M2984 6175 c-27 -41 -36 -104 -24 -156 11 -47 70 -129 93 -129 6 0
-1 12 -15 28 -44 47 -61 92 -60 159 0 35 7 74 16 92 20 37 13 41 -10 6z"/>
<path d="M5590 6173 c0 -5 14 -32 30 -62 17 -30 30 -57 30 -59 0 -3 -14 7 -31
24 l-32 29 7 -29 c4 -16 16 -41 27 -55 24 -30 96 -81 116 -81 24 0 20 77 -8
132 -27 53 -140 135 -139 101z"/>
<path d="M3522 6125 c0 -16 2 -22 5 -12 2 9 2 23 0 30 -3 6 -5 -1 -5 -18z"/>
<path d="M4300 6001 c0 -4 5 -23 11 -40 9 -25 9 -38 -1 -56 -17 -32 -6 -55 25
-55 14 0 25 -4 25 -9 0 -5 24 -35 53 -67 51 -56 52 -57 22 -51 -16 3 -38 9
-47 12 -25 10 -23 -14 4 -42 30 -32 17 -52 -57 -81 -103 -42 -273 -46 -301 -7
-10 14 -11 22 -2 32 17 21 6 24 -48 14 -29 -6 -55 -6 -66 0 -9 5 -57 19 -105
31 -71 17 -119 21 -245 22 -145 0 -160 -2 -186 -21 -15 -11 -55 -34 -88 -51
-87 -44 -177 -114 -211 -163 -16 -24 -49 -73 -74 -109 -43 -62 -71 -136 -125
-325 -44 -156 -114 -254 -199 -281 -69 -22 -85 -12 -85 57 0 59 -13 96 -48
132 -26 28 -27 29 -8 43 11 8 31 14 45 14 l26 1 -25 14 c-37 21 -64 18 -91
-11 -33 -36 -75 -53 -118 -47 -42 6 -91 -26 -91 -58 0 -23 32 -26 50 -4 23 28
42 18 35 -17 -5 -26 -2 -36 13 -45 17 -10 21 -8 31 13 13 30 31 31 31 1 0 -43
35 -90 88 -118 44 -24 55 -26 84 -17 69 22 100 39 143 79 63 59 100 121 149
255 72 199 163 364 201 364 5 0 31 20 56 44 98 94 188 76 189 -37 1 -28 3 -26
19 21 27 79 112 160 200 190 21 7 39 8 50 3 13 -8 6 -14 -34 -30 -82 -34 -99
-47 -119 -87 -26 -51 -28 -150 -3 -187 23 -36 22 -49 -9 -78 -40 -37 -57 -77
-51 -122 7 -49 41 -87 78 -87 39 0 53 31 51 110 -3 84 5 94 62 91 47 -2 100
18 124 48 9 11 15 13 18 4 16 -38 47 -63 77 -63 l32 1 -32 14 c-36 15 -53 56
-33 80 13 16 54 12 105 -10 17 -8 41 -17 54 -20 34 -10 118 -61 176 -107 55
-44 201 -182 206 -195 8 -18 172 -94 215 -100 55 -7 57 3 3 17 -23 6 -53 23
-67 37 -18 18 -27 22 -32 12 -15 -24 -67 11 -162 109 -51 54 -111 119 -133
147 -22 27 -57 68 -77 89 -21 22 -38 48 -38 58 0 10 -7 18 -16 18 -9 0 -35 16
-58 34 -94 78 -202 105 -282 71 -26 -11 -34 -19 -31 -32 3 -10 8 -34 11 -54
l6 -36 -57 -20 c-32 -11 -64 -22 -72 -24 -8 -2 -22 10 -32 27 -26 42 -11 133
29 183 48 61 81 71 197 61 55 -5 140 -18 188 -29 163 -39 311 -23 442 48 l70
37 55 -28 c100 -51 123 -27 40 43 -52 44 -61 59 -35 59 23 0 19 55 -7 108 -13
24 -56 75 -96 113 -70 65 -92 80 -92 60z m-880 -402 c0 -6 -9 -24 -21 -40 -32
-45 -89 -37 -74 10 9 29 95 56 95 30z m419 -190 c44 -13 66 -32 57 -47 -7 -11
-93 -4 -118 10 -29 14 -21 65 8 54 7 -3 30 -10 53 -17z m147 -86 c-7 -7 -26 7
-26 19 0 6 6 6 15 -2 9 -7 13 -15 11 -17z m-262 -7 c-6 -15 -73 -46 -99 -46
-32 0 -13 29 28 43 55 20 78 21 71 3z m-1190 -388 c20 -28 20 -46 1 -50 -13
-3 -13 -9 5 -43 34 -66 23 -85 -23 -40 -30 31 -42 72 -27 91 7 7 9 18 5 24 -8
14 1 40 14 40 5 0 17 -10 25 -22z"/>
<path d="M4534 5894 c-8 -67 6 -157 36 -238 17 -44 40 -76 91 -128 41 -42 73
-67 80 -63 15 10 4 106 -22 193 -33 106 -140 292 -169 292 -5 0 -12 -25 -16
-56z"/>
<path d="M3415 5899 c-22 -17 -58 -39 -80 -49 -32 -15 -35 -19 -17 -19 34 -1
94 33 120 68 12 17 21 31 20 31 -2 0 -21 -14 -43 -31z"/>
<path d="M7061 5902 c27 -38 86 -72 121 -71 18 0 12 5 -23 23 -25 13 -63 36
-85 52 l-38 29 25 -33z"/>
<path d="M5167 5844 c40 -57 39 -77 -6 -122 -47 -47 -51 -73 -20 -134 16 -31
20 -53 16 -85 l-5 -44 23 21 c41 39 76 133 77 206 0 55 -4 72 -28 111 -16 25
-40 53 -54 62 l-25 16 22 -31z"/>
<path d="M2820 5643 c-33 -30 -48 -88 -36 -137 9 -35 55 -87 92 -102 58 -24
96 -4 208 110 56 57 114 111 129 121 52 34 18 27 -47 -9 -36 -20 -78 -53 -93
-73 -52 -69 -89 -101 -130 -113 -37 -11 -46 -10 -86 9 -54 26 -71 61 -56 115
13 46 52 76 99 76 51 0 73 -26 68 -80 -3 -36 -1 -40 17 -38 25 4 32 47 14 90
-25 60 -127 78 -179 31z"/>
<path d="M7544 5656 c-53 -23 -75 -127 -29 -134 18 -2 20 2 17 38 -5 53 17 80
67 80 46 0 79 -23 98 -67 22 -54 4 -96 -53 -124 -41 -19 -50 -20 -87 -9 -41
12 -78 44 -130 113 -26 35 -152 115 -163 104 -3 -3 5 -11 18 -18 12 -6 71 -60
129 -119 113 -116 154 -139 207 -119 82 31 121 121 91 208 -19 55 -96 77 -165
47z"/>
<path d="M2580 5634 c0 -4 11 -22 25 -40 16 -20 21 -34 13 -36 -17 -6 43 -58
67 -58 18 1 17 3 -7 25 -36 31 -35 45 3 45 44 0 32 22 -22 37 -24 7 -52 17
-61 23 -10 5 -18 7 -18 4z"/>
<path d="M7906 5633 c-4 -5 -30 -15 -58 -23 -60 -18 -76 -40 -29 -40 38 0 39
-14 4 -45 -25 -22 -26 -24 -8 -25 24 0 84 52 67 58 -7 2 -2 17 14 38 15 19 25
37 22 39 -3 3 -8 2 -12 -2z"/>
<path d="M3556 5513 c-6 -14 -5 -15 5 -6 7 7 10 15 7 18 -3 3 -9 -2 -12 -12z"/>
<path d="M6930 5521 c0 -6 4 -13 10 -16 6 -3 7 1 4 9 -7 18 -14 21 -14 7z"/>
<path d="M7775 5510 c-4 -12 -5 -24 -2 -27 3 -2 8 5 12 17 4 12 5 24 2 27 -3
2 -8 -5 -12 -17z"/>
<path d="M2710 5513 c0 -4 5 -15 10 -23 8 -13 10 -13 10 2 0 9 -4 20 -10 23
-5 3 -10 3 -10 -2z"/>
<path d="M4495 5481 c-46 -20 -73 -55 -81 -104 -3 -17 -15 -51 -26 -74 -21
-41 -21 -42 -3 -82 16 -36 22 -41 49 -40 22 1 25 3 9 6 -47 9 -54 61 -11 84
16 9 29 7 61 -7 l40 -18 58 32 c43 24 70 32 106 32 48 0 61 -6 213 -92 73 -42
102 -44 43 -4 -29 20 -75 64 -103 99 -68 82 -143 143 -208 167 -65 25 -95 25
-147 1z"/>
<path d="M4101 5432 c-12 -23 4 -52 29 -52 11 0 20 7 20 15 0 9 -9 15 -21 15
-16 0 -20 5 -16 20 6 25 1 26 -12 2z"/>
<path d="M6383 5434 c2 -18 -2 -20 -39 -23 -14 -1 -14 -4 -4 -16 16 -20 49
-16 64 7 8 14 7 21 -6 34 -15 15 -16 15 -15 -2z"/>
<path d="M2715 5424 c-15 -8 -34 -14 -41 -14 -8 0 -14 -3 -14 -7 0 -5 27 -6
60 -5 33 2 75 -1 93 -7 l32 -12 -20 21 c-31 31 -78 41 -110 24z"/>
<path d="M6266 5425 c-15 -8 -46 -15 -68 -15 -22 0 -48 -5 -59 -11 -19 -10
-17 -13 26 -46 46 -35 55 -55 16 -33 -16 8 -21 8 -21 -3 0 -18 68 -81 110
-102 52 -26 63 -37 49 -46 -32 -20 -154 46 -185 100 l-15 26 6 -28 c7 -35 -14
-33 -30 1 -14 31 -28 27 -21 -5 10 -42 38 -76 82 -98 32 -17 59 -20 156 -20
64 0 120 3 124 7 4 4 -5 17 -20 29 -15 12 -43 54 -62 94 -19 40 -43 80 -54 90
-22 20 -26 41 -8 47 6 2 9 9 7 16 -3 9 -11 8 -33 -3z"/>
<path d="M7735 5432 c-12 -1 -34 -14 -50 -27 l-30 -25 32 11 c18 6 60 9 93 7
33 -1 60 0 60 5 0 4 -9 7 -19 7 -11 0 -22 4 -25 9 -7 11 -36 17 -61 13z"/>
<path d="M6587 5373 c-4 -3 -7 -11 -7 -17 0 -6 5 -5 12 2 6 6 9 14 7 17 -3 3
-9 2 -12 -2z"/>
<path d="M3860 5195 c0 -8 5 -15 10 -15 6 0 10 7 10 15 0 8 -4 15 -10 15 -5 0
-10 -7 -10 -15z"/>
<path d="M6620 5195 c0 -8 5 -15 10 -15 6 0 10 7 10 15 0 8 -4 15 -10 15 -5 0
-10 -7 -10 -15z"/>
<path d="M3328 5160 c-15 -25 -23 -46 -18 -48 21 -7 -15 -52 -54 -67 -34 -13
-51 -14 -91 -5 -41 9 -50 9 -57 -5 -5 -8 -19 -16 -31 -17 -12 -1 10 -4 48 -7
65 -6 75 -4 137 26 76 37 101 71 96 131 l-3 37 -27 -45z"/>
<path d="M7140 5170 c0 -64 24 -97 97 -133 64 -31 72 -33 138 -27 39 4 60 8
48 8 -12 1 -26 9 -31 17 -7 14 -16 14 -56 5 -35 -8 -58 -8 -82 0 -35 12 -83
62 -65 68 7 2 3 18 -9 42 -26 52 -40 59 -40 20z"/>
<path d="M3786 5113 c-49 -34 -48 -45 3 -19 27 15 57 44 50 49 -2 2 -26 -12
-53 -30z"/>
<path d="M6662 5140 c6 -19 66 -60 87 -60 9 0 0 10 -19 21 -19 12 -44 29 -54
38 -16 13 -18 13 -14 1z"/>
<path d="M2115 4990 c-3 -5 -1 -10 4 -10 6 0 11 5 11 10 0 6 -2 10 -4 10 -3 0
-8 -4 -11 -10z"/>
<path d="M8370 4990 c0 -5 5 -10 11 -10 5 0 7 5 4 10 -3 6 -8 10 -11 10 -2 0
-4 -4 -4 -10z"/>
<path d="M5637 4964 c-7 -12 46 -202 70 -247 26 -52 89 -141 114 -162 22 -19
22 -18 -3 15 -32 44 -48 99 -48 166 0 33 -8 66 -25 100 -30 59 -99 142 -108
128z"/>
<path d="M3141 4944 c0 -11 3 -14 6 -6 3 7 2 16 -1 19 -3 4 -6 -2 -5 -13z"/>
<path d="M7351 4944 c0 -11 3 -14 6 -6 3 7 2 16 -1 19 -3 4 -6 -2 -5 -13z"/>
<path d="M2888 4861 c-43 -91 -94 -152 -154 -187 -50 -30 -54 -39 -20 -48 14
-3 27 -14 31 -25 3 -10 25 -26 49 -35 33 -13 49 -26 63 -54 l18 -37 3 40 c7
88 -28 155 -83 155 -35 0 -32 12 15 54 40 36 60 39 60 11 0 -8 5 -17 11 -21 9
-5 10 6 5 40 -7 46 5 64 19 29 6 -17 7 -17 21 1 15 21 20 141 7 149 -5 3 -25
-30 -45 -72z"/>
<path d="M5797 4926 c-55 -13 -52 -26 4 -26 40 0 89 17 89 32 0 10 -33 9 -93
-6z"/>
<path d="M7566 4925 c-11 -31 -6 -121 8 -141 14 -18 15 -18 21 -1 14 35 26 17
19 -29 -5 -34 -4 -45 5 -40 6 4 11 13 11 21 0 28 20 25 60 -11 47 -42 50 -54
15 -54 -55 0 -90 -67 -83 -155 l3 -40 18 37 c14 28 30 41 63 54 24 9 46 25 49
35 4 11 17 22 31 25 34 9 30 18 -20 48 -60 35 -110 96 -156 189 -26 54 -39 73
-44 62z"/>
<path d="M4250 4880 c0 -5 5 -10 10 -10 6 0 10 5 10 10 0 6 -4 10 -10 10 -5 0
-10 -4 -10 -10z"/>
<path d="M2690 4870 c0 -5 5 -10 10 -10 6 0 10 5 10 10 0 6 -4 10 -10 10 -5 0
-10 -4 -10 -10z"/>
<path d="M7790 4870 c0 -5 5 -10 10 -10 6 0 10 5 10 10 0 6 -4 10 -10 10 -5 0
-10 -4 -10 -10z"/>
<path d="M2167 4833 c-8 -14 12 -53 27 -53 21 0 27 27 10 45 -17 16 -30 19
-37 8z"/>
<path d="M8303 4833 c-7 -2 -13 -16 -13 -29 0 -31 28 -32 39 -1 13 32 4 43
-26 30z"/>
<path d="M5602 4792 c-27 -41 -24 -50 8 -24 13 11 21 26 18 38 -3 19 -6 17
-26 -14z"/>
<path d="M2640 4805 c0 -8 7 -15 15 -15 8 0 15 7 15 15 0 8 -7 15 -15 15 -8 0
-15 -7 -15 -15z"/>
<path d="M7830 4805 c0 -8 7 -15 15 -15 8 0 15 7 15 15 0 8 -7 15 -15 15 -8 0
-15 -7 -15 -15z"/>
<path d="M2963 4778 c-44 -48 -78 -157 -54 -172 14 -9 59 61 77 120 23 78 16
94 -23 52z"/>
<path d="M7500 4787 c0 -56 70 -194 91 -181 14 8 4 75 -17 118 -29 57 -74 95
-74 63z"/>
<path d="M5173 4740 c-20 -32 -16 -52 9 -48 27 4 34 26 16 51 -12 16 -14 16
-25 -3z"/>
<path d="M5292 4708 c-15 -64 -45 -113 -83 -135 -16 -10 -29 -23 -29 -30 0 -6
-10 -28 -22 -48 -15 -27 -22 -58 -25 -113 l-4 -77 41 45 c53 58 87 124 111
216 19 74 36 194 27 194 -2 0 -10 -23 -16 -52z"/>
<path d="M3620 4720 c0 -6 11 -8 28 -4 39 10 40 14 4 14 -18 0 -32 -5 -32 -10z"/>
<path d="M6821 4726 c12 -10 59 -15 59 -6 0 5 -14 10 -32 10 -17 0 -29 -2 -27
-4z"/>
<path d="M2120 4700 c0 -5 5 -10 11 -10 5 0 7 5 4 10 -3 6 -8 10 -11 10 -2 0
-4 -4 -4 -10z"/>
<path d="M2295 4699 c-12 -19 5 -23 22 -6 16 16 16 17 1 17 -9 0 -20 -5 -23
-11z"/>
<path d="M3488 4652 c-78 -57 -91 -72 -63 -72 8 0 15 -4 15 -9 0 -5 -7 -14
-15 -21 -8 -7 -15 -18 -15 -24 0 -6 17 6 36 27 20 21 38 36 41 33 4 -3 14 12
24 34 10 22 22 40 27 40 5 0 17 11 26 25 25 37 9 31 -76 -33z"/>
<path d="M8184 4695 c21 -16 32 -13 21 4 -3 6 -14 11 -23 11 -15 -1 -15 -2 2
-15z"/>
<path d="M6959 4665 c17 -20 34 -47 37 -60 3 -14 10 -22 15 -20 4 3 24 -11 43
-32 20 -21 36 -33 36 -27 0 6 -7 17 -15 24 -8 7 -15 16 -15 21 0 5 7 9 15 9
31 0 9 24 -82 85 -65 44 -73 44 -34 0z"/>
<path d="M2580 4635 c0 -8 5 -15 10 -15 6 0 10 7 10 15 0 8 -4 15 -10 15 -5 0
-10 -7 -10 -15z"/>
<path d="M7900 4635 c0 -8 5 -15 10 -15 6 0 10 7 10 15 0 8 -4 15 -10 15 -5 0
-10 -7 -10 -15z"/>
<path d="M3797 4578 c4 -68 30 -141 46 -131 23 14 -15 193 -42 193 -4 0 -6
-28 -4 -62z"/>
<path d="M6674 4603 c-20 -43 -31 -147 -17 -156 16 -10 42 63 46 131 2 34 0
62 -4 62 -4 0 -15 -17 -25 -37z"/>
<path d="M3578 4583 c-18 -5 -25 -38 -10 -47 20 -12 52 7 52 30 0 23 -7 26
-42 17z"/>
<path d="M6880 4565 c0 -18 5 -25 19 -25 23 0 34 23 18 39 -19 19 -37 12 -37
-14z"/>
<path d="M2450 4546 c0 -14 -18 -44 -46 -75 -37 -41 -48 -61 -52 -96 -2 -25
-1 -45 4 -45 15 1 44 26 44 39 0 6 5 11 11 11 7 0 27 9 46 21 26 17 31 24 22
35 -7 8 -8 28 -4 53 7 43 0 81 -16 81 -5 0 -9 -11 -9 -24z"/>
<path d="M8025 4550 c-3 -11 -3 -40 0 -64 5 -29 3 -46 -5 -51 -13 -8 45 -55
67 -55 7 0 13 -5 13 -11 0 -13 29 -38 44 -39 5 0 6 20 4 45 -4 35 -15 55 -52
96 -28 31 -46 61 -46 75 0 29 -16 32 -25 4z"/>
<path d="M3112 4498 c-17 -23 -24 -58 -11 -58 16 0 79 48 79 61 0 14 -56 11
-68 -3z"/>
<path d="M7320 4501 c0 -13 63 -61 79 -61 13 0 6 35 -11 58 -12 14 -68 17 -68
3z"/>
<path d="M2910 4459 c0 -57 31 -119 81 -158 22 -18 38 -35 36 -37 -3 -3 -24 1
-47 8 -48 15 -128 81 -161 134 -31 52 -36 33 -5 -21 15 -25 45 -57 66 -71 22
-15 37 -30 34 -35 -3 -5 -44 -6 -92 -3 -61 4 -112 1 -172 -11 -47 -10 -104
-19 -127 -22 -24 -3 -43 -10 -43 -17 0 -6 -28 -26 -60 -45 -33 -19 -92 -63
-130 -98 -64 -57 -75 -63 -115 -63 -24 0 -56 5 -70 12 -22 10 -31 9 -56 -6
-25 -15 -34 -16 -67 -5 -20 7 -45 20 -56 29 -55 46 -73 162 -36 235 11 21 17
41 15 44 -3 3 -24 -13 -46 -35 -58 -58 -62 -97 -15 -153 30 -36 36 -49 31 -72
-6 -24 -1 -32 36 -58 23 -17 58 -33 78 -37 64 -10 64 -12 20 -56 -62 -63 -81
-114 -89 -243 -4 -64 -14 -126 -24 -149 -14 -33 -14 -37 -1 -32 13 5 14 -3 9
-52 -9 -73 -18 -91 -59 -108 -45 -18 -49 -29 -20 -42 22 -10 27 -8 41 13 9 14
19 25 23 25 3 0 7 -53 9 -118 2 -64 9 -164 18 -222 9 -66 12 -132 8 -177 -5
-52 -3 -73 5 -73 7 0 11 28 11 83 0 45 4 88 9 96 5 8 5 25 -1 42 -5 15 -8 42
-6 61 l3 33 37 -56 c20 -31 104 -123 186 -206 83 -82 146 -142 139 -133 -6 8
-48 57 -92 109 -142 167 -184 225 -220 297 -33 66 -44 102 -65 218 -10 54 2
176 25 253 19 61 18 65 -3 28 l-17 -30 -3 32 c-9 92 64 258 151 345 48 49 87
72 87 53 0 -2 -22 -35 -49 -72 -47 -65 -147 -250 -139 -258 2 -2 16 21 32 51
16 30 31 53 33 51 2 -3 -8 -44 -23 -93 -33 -112 -37 -258 -11 -346 10 -32 22
-58 27 -58 18 0 23 48 24 220 1 163 3 180 28 249 15 40 29 76 32 79 14 14 14
-8 -1 -48 -24 -67 -29 -234 -9 -303 9 -30 16 -75 16 -99 0 -53 23 -145 49
-195 l19 -37 5 29 c10 48 3 121 -12 139 -24 29 -30 95 -14 150 16 55 10 78
-38 138 -29 35 -19 70 26 98 43 26 51 55 31 104 -20 47 -13 61 56 113 52 39
64 55 88 121 7 17 28 45 46 61 32 29 46 31 117 22 4 -1 4 -13 1 -28 l-7 -27
29 23 c16 12 40 46 54 74 21 44 34 56 82 81 50 24 70 28 150 30 l93 1 0 -32
c0 -18 0 -33 1 -33 1 0 18 7 37 15 49 20 146 20 153 0 5 -11 16 -13 43 -9 24
3 43 0 56 -9 17 -13 21 -13 30 0 17 23 51 1 70 -44 14 -32 18 -35 45 -30 16 4
32 2 35 -3 4 -6 11 -7 17 -4 6 4 17 -1 24 -11 12 -15 12 -13 7 18 -4 29 -2 37
18 50 13 8 46 18 72 22 81 11 156 43 232 97 66 48 73 55 82 100 5 26 9 48 7
48 -1 0 -11 -16 -23 -35 -11 -19 -27 -35 -36 -35 -9 0 -14 -4 -11 -8 8 -14
-22 -51 -56 -68 -18 -10 -48 -14 -77 -12 -43 3 -46 1 -49 -22 -5 -34 -28 -50
-73 -50 -55 0 -96 38 -105 97 l-7 46 -13 -31 c-26 -63 -127 -83 -183 -37 -38
33 -54 79 -42 123 6 19 6 32 1 32 -15 0 -40 -56 -40 -90 0 -16 -3 -30 -7 -30
-22 0 -132 52 -155 73 -24 21 -28 33 -28 75 0 28 -4 54 -10 57 -6 4 -10 -11
-10 -36z"/>
<path d="M7578 4494 c-5 -4 -8 -29 -8 -55 0 -62 -25 -90 -111 -123 -36 -14
-69 -26 -72 -26 -4 0 -7 14 -7 30 0 34 -25 90 -40 90 -5 0 -5 -13 1 -32 12
-44 -4 -90 -42 -123 -56 -46 -157 -26 -183 37 l-13 31 -7 -46 c-9 -59 -50 -97
-105 -97 -45 0 -68 16 -73 50 -3 23 -6 25 -49 22 -71 -5 -113 22 -173 112 -32
48 -36 21 -4 -35 35 -63 135 -125 243 -150 129 -31 140 -37 139 -82 -1 -31 1
-35 11 -21 7 10 17 14 23 10 6 -3 13 -2 17 4 3 5 19 7 35 4 25 -6 31 -2 49 34
23 45 50 61 66 39 9 -13 13 -13 30 0 13 9 33 13 57 10 26 -3 38 -1 42 9 7 19
106 18 153 -1 19 -8 36 -15 37 -15 1 0 1 15 1 33 l0 32 93 -1 c83 -2 100 -5
157 -33 56 -28 66 -37 75 -69 10 -40 21 -56 59 -87 l24 -20 -7 28 c-3 15 -3
27 1 28 71 9 85 7 117 -22 18 -16 39 -44 46 -61 24 -66 36 -82 88 -121 69 -52
76 -66 56 -113 -20 -48 -13 -74 31 -103 46 -31 54 -64 26 -99 -49 -62 -53 -78
-36 -134 17 -57 12 -108 -13 -147 -17 -28 -24 -89 -15 -140 l6 -34 18 36 c26
50 49 142 49 195 0 24 7 69 16 99 20 69 15 236 -9 303 -16 44 -14 67 4 40 5
-8 19 -44 31 -80 19 -56 22 -90 24 -238 1 -95 5 -184 8 -198 20 -79 61 52 59
191 0 77 -7 121 -27 189 -28 93 -28 119 -1 67 17 -33 29 -43 17 -13 -22 53
-76 145 -116 200 -51 69 -52 72 -31 72 27 0 129 -113 162 -180 38 -76 66 -177
61 -223 l-4 -32 -21 45 c-27 57 -28 51 -4 -26 29 -91 43 -210 32 -269 -40
-211 -65 -255 -286 -516 -44 -52 -86 -101 -92 -109 -7 -9 56 51 139 133 82 83
166 175 186 206 l37 56 3 -42 c2 -23 -1 -51 -7 -61 -6 -11 -6 -24 0 -33 5 -7
9 -51 9 -96 0 -56 4 -83 11 -83 9 0 10 22 6 76 -4 47 -1 111 8 172 7 53 15
152 17 219 2 68 6 123 9 123 4 0 14 -11 23 -25 14 -21 19 -23 41 -13 29 13 25
24 -20 42 -41 17 -50 35 -59 108 -5 49 -4 57 9 52 13 -5 13 -1 -1 32 -10 23
-20 85 -24 149 -8 129 -28 183 -89 244 -43 43 -43 45 20 55 20 4 55 20 78 37
37 26 42 34 36 58 -5 23 1 36 31 72 30 37 35 48 30 78 -5 31 -68 111 -88 111
-4 0 2 -19 12 -42 25 -56 26 -137 1 -186 -23 -45 -45 -64 -93 -81 -33 -11 -42
-10 -67 5 -25 15 -34 16 -56 6 -14 -7 -45 -12 -69 -12 -39 0 -51 6 -107 57
-35 31 -94 76 -131 100 -37 24 -68 48 -68 52 0 5 -19 11 -42 14 -24 3 -81 12
-128 22 -60 12 -111 15 -172 11 -93 -6 -117 3 -71 28 35 18 66 51 88 94 22 45
13 52 -13 10 -36 -57 -104 -116 -155 -133 -27 -9 -51 -14 -54 -12 -2 3 14 20
37 38 56 45 82 97 78 156 -2 24 -6 41 -10 37z"/>
<path d="M3447 4468 c-18 -19 -17 -68 2 -68 11 0 31 46 31 70 0 25 -10 24 -33
-2z"/>
<path d="M7020 4470 c0 -24 20 -70 31 -70 5 0 11 11 15 24 4 17 -1 31 -15 45
-26 26 -31 26 -31 1z"/>
<path d="M3596 4462 c-11 -10 -6 -20 13 -25 11 -3 22 1 25 8 5 13 -28 28 -38
17z"/>
<path d="M6248 4351 c-98 -57 -123 -97 -115 -181 5 -57 28 -111 69 -162 17
-22 23 -47 29 -125 l6 -98 0 91 c0 90 1 93 37 140 45 59 51 80 40 157 -5 34
-8 95 -9 135 0 39 -2 72 -5 71 -3 0 -26 -12 -52 -28z m-22 -327 c-5 -13 -10
-14 -18 -6 -7 7 -8 27 -3 59 l8 48 10 -42 c5 -23 7 -50 3 -59z"/>
<path d="M5524 4345 c-14 -21 -15 -31 -6 -51 22 -46 81 -44 104 4 12 24 19 27
65 27 78 -1 118 -37 165 -151 42 -101 47 -151 22 -254 -19 -82 -49 -133 -113
-194 -58 -54 -131 -90 -223 -112 -54 -12 -57 -13 -17 -9 159 16 300 127 365
286 27 70 27 70 15 167 -27 197 -134 311 -293 312 -61 0 -69 -2 -84 -25z"/>
<path d="M2410 4261 c0 -5 10 -11 23 -15 35 -9 40 -7 27 9 -13 16 -50 21 -50
6z"/>
<path d="M8040 4255 c-10 -12 -10 -15 3 -15 23 0 47 11 47 21 0 15 -37 10 -50
-6z"/>
<path d="M2086 4176 c6 -16 63 -46 87 -46 8 0 20 7 27 15 10 12 5 17 -25 30
-48 20 -96 20 -89 1z"/>
<path d="M8322 4174 c-28 -12 -32 -17 -22 -29 7 -8 21 -15 32 -15 27 0 74 26
81 45 8 20 -44 19 -91 -1z"/>
<path d="M3011 4089 c-22 -18 -26 -18 -47 -4 -30 19 -32 2 -2 -19 24 -17 51
-8 68 24 13 25 11 24 -19 -1z"/>
<path d="M7469 4092 c18 -34 44 -44 69 -26 30 21 28 38 -1 19 -22 -14 -26 -14
-52 7 l-28 21 12 -21z"/>
<path d="M3203 4083 c-7 -3 -13 -13 -13 -23 0 -20 -16 -36 -45 -43 -12 -3 -6
-5 16 -6 23 -1 42 5 52 17 27 30 20 66 -10 55z"/>
<path d="M7276 4083 c-12 -12 -6 -40 12 -56 11 -10 34 -16 53 -16 21 1 27 3
14 6 -29 7 -45 23 -45 43 0 18 -23 34 -34 23z"/>
<path d="M2688 4058 c-47 -27 -49 -42 -5 -33 33 8 107 42 107 50 0 14 -70 2
-102 -17z"/>
<path d="M7710 4075 c0 -2 17 -13 38 -24 39 -20 112 -38 112 -28 0 14 -90 57
-118 57 -18 0 -32 -2 -32 -5z"/>
<path d="M3024 4029 c-10 -13 -44 -93 -44 -104 0 -14 18 -1 38 29 14 21 22 45
20 62 -2 22 -5 25 -14 13z"/>
<path d="M7460 4011 c0 -20 10 -42 31 -63 28 -30 30 -31 23 -9 -22 81 -54 123
-54 72z"/>
<path d="M2389 4014 c-25 -28 -56 -94 -63 -134 l-7 -35 20 35 c11 19 29 46 40
60 20 25 20 25 35 5 16 -20 16 -20 31 -1 15 20 20 58 8 69 -3 4 -13 -3 -22
-16 l-16 -22 -5 29 c-5 27 -6 27 -21 10z"/>
<path d="M3390 4005 c0 -14 -5 -25 -10 -25 -13 0 -10 -90 4 -109 8 -10 13 -5
22 20 18 50 17 126 -1 133 -11 4 -15 -1 -15 -19z"/>
<path d="M7093 4019 c-16 -16 -16 -56 -2 -115 8 -32 15 -42 23 -35 14 12 20
111 7 111 -5 0 -11 12 -13 26 -2 20 -5 23 -15 13z"/>
<path d="M8090 4003 l-1 -28 -18 22 c-10 12 -21 19 -25 16 -11 -11 -6 -49 9
-69 14 -18 16 -18 29 -1 7 9 16 17 19 17 3 0 20 -22 38 -50 18 -27 34 -49 35
-47 7 7 -20 83 -42 118 -31 50 -44 56 -44 22z"/>
<path d="M4350 3976 c0 -41 -22 -60 -81 -70 -23 -4 -46 -18 -66 -41 -27 -31
-37 -35 -78 -35 -63 0 -82 13 -112 73 -17 37 -23 43 -18 22 30 -148 238 -205
347 -95 36 35 38 42 38 98 0 41 -5 63 -15 72 -13 11 -15 7 -15 -24z"/>
<path d="M3310 3974 c0 -11 7 -29 15 -40 14 -18 15 -17 9 11 -8 37 -24 57 -24
29z"/>
<path d="M7177 3983 c-2 -5 -7 -21 -11 -38 -6 -28 -5 -29 9 -11 8 11 15 28 15
38 0 19 -6 23 -13 11z"/>
<path d="M1393 3945 c-29 -12 -99 -102 -89 -113 2 -2 22 8 44 23 22 14 74 41
116 59 41 18 73 36 69 40 -12 11 -107 5 -140 -9z"/>
<path d="M8967 3954 c-4 -4 28 -22 69 -40 42 -18 94 -45 116 -59 22 -15 42
-25 44 -23 11 12 -60 101 -91 114 -35 14 -126 19 -138 8z"/>
<path d="M1773 3905 c-19 -13 -40 -58 -58 -122 -6 -21 -3 -23 34 -23 47 0 81
12 106 37 18 17 17 18 -31 23 -42 4 -49 8 -46 25 2 11 12 32 23 48 22 31 8 37
-28 12z"/>
<path d="M8690 3917 c0 -1 9 -20 20 -41 10 -22 17 -43 14 -47 -3 -5 -26 -9
-52 -9 l-47 0 26 -26 c19 -19 40 -27 83 -31 l57 -6 -7 29 c-12 54 -42 112 -62
123 -20 11 -32 14 -32 8z"/>
<path d="M1847 3893 c-12 -11 -8 -23 8 -23 8 0 15 7 15 15 0 16 -12 20 -23 8z"/>
<path d="M8630 3886 c0 -9 7 -16 16 -16 9 0 14 5 12 12 -6 18 -28 21 -28 4z"/>
<path d="M2765 3870 c-11 -17 5 -30 36 -30 31 0 36 9 17 28 -15 15 -45 16 -53
2z"/>
<path d="M7682 3868 c-20 -20 -14 -29 21 -26 20 2 32 8 32 18 0 19 -36 25 -53
8z"/>
<path d="M2402 3840 c0 -19 2 -27 5 -17 2 9 2 25 0 35 -3 9 -5 1 -5 -18z"/>
<path d="M8092 3840 c0 -19 2 -27 5 -17 2 9 2 25 0 35 -3 9 -5 1 -5 -18z"/>
<path d="M6208 3722 c-37 -127 -135 -232 -283 -303 -84 -40 -94 -50 -23 -22
98 38 202 119 259 199 35 51 71 140 67 166 -2 11 -11 -7 -20 -40z"/>
<path d="M8500 3665 c0 -5 5 -17 10 -25 5 -8 10 -10 10 -5 0 6 -5 17 -10 25
-5 8 -10 11 -10 5z"/>
<path d="M2974 3620 c-22 -8 -54 -47 -54 -63 0 -5 10 -5 21 -2 23 8 20 -3 -9
-37 -14 -16 -13 -18 4 -18 11 0 29 7 42 15 31 22 86 105 70 105 -7 0 -22 2
-33 5 -11 2 -30 0 -41 -5z"/>
<path d="M7462 3623 l-22 -4 30 -44 c34 -50 66 -75 94 -75 18 0 18 1 3 18 -21
23 -22 43 -2 36 22 -9 18 11 -7 40 -24 26 -58 37 -96 29z"/>
<path d="M1528 3575 c-9 -16 -28 -41 -43 -55 -15 -14 -31 -33 -37 -43 -9 -17
-8 -17 21 -3 16 9 39 16 51 16 26 0 32 16 28 71 l-3 44 -17 -30z"/>
<path d="M5428 3593 c7 -3 16 -2 19 1 4 3 -2 6 -13 5 -11 0 -14 -3 -6 -6z"/>
<path d="M8953 3550 l2 -54 39 -8 c22 -5 45 -13 53 -19 26 -22 12 1 -29 49
-24 27 -49 57 -55 68 -11 16 -12 11 -10 -36z"/>
<path d="M5765 3365 c-28 -8 -39 -13 -25 -13 14 0 43 5 65 13 51 17 25 17 -40
0z"/>
<path d="M5408 3353 c6 -2 18 -2 25 0 6 3 1 5 -13 5 -14 0 -19 -2 -12 -5z"/>
<path d="M5483 3343 c15 -2 39 -2 55 0 15 2 2 4 -28 4 -30 0 -43 -2 -27 -4z"/>
<path d="M5648 3343 c12 -2 32 -2 45 0 12 2 2 4 -23 4 -25 0 -35 -2 -22 -4z"/>
<path d="M4314 3248 c-11 -13 -26 -32 -34 -42 -14 -17 -13 -18 6 -12 19 6 22
2 27 -43 3 -26 15 -64 26 -82 12 -19 21 -40 21 -48 0 -7 -30 -43 -66 -80 l-66
-66 -23 29 c-51 63 -56 156 -12 212 l22 29 -25 -16 c-47 -30 -83 -94 -88 -154
-5 -67 7 -103 83 -241 48 -86 55 -95 55 -67 0 25 13 46 56 95 31 35 63 77 70
95 22 50 17 139 -12 228 -20 61 -25 93 -21 133 3 28 4 52 3 52 -1 0 -11 -10
-22 -22z"/>
<path d="M2781 3186 c-7 -8 -8 -27 -4 -50 l8 -38 28 22 c30 24 36 64 11 74
-23 9 -30 8 -43 -8z"/>
<path d="M7673 3193 c-23 -9 -14 -51 14 -73 l28 -22 8 38 c10 51 -10 74 -50
57z"/>
<path d="M1990 3161 c0 -12 92 -93 98 -86 3 3 -1 17 -8 31 -14 26 -90 73 -90
55z"/>
<path d="M8470 3150 c-34 -17 -70 -64 -58 -75 3 -3 27 14 54 39 55 49 56 63 4
36z"/>
<path d="M1804 3128 c-35 -38 -54 -78 -54 -115 0 -21 2 -24 15 -13 8 7 28 35
44 64 53 94 51 124 -5 64z"/>
<path d="M8650 3154 c0 -16 64 -135 81 -150 18 -16 19 -16 19 9 0 14 -5 38
-11 54 -16 42 -89 114 -89 87z"/>
<path d="M4236 3111 c-20 -37 -20 -61 -3 -86 13 -17 15 -17 35 3 27 27 28 56
3 89 l-20 24 -15 -30z"/>
<path d="M1297 2905 c-47 -16 -57 -25 -29 -25 12 0 40 -10 62 -21 41 -21 64
-19 42 3 -7 7 -12 22 -12 35 0 26 -10 28 -63 8z"/>
<path d="M1475 2898 c74 -38 95 -65 95 -123 0 -41 -5 -57 -29 -85 -15 -19 -32
-46 -36 -59 -7 -23 -7 -23 16 -7 49 34 96 1 49 -34 -15 -11 -21 -23 -17 -34 9
-22 20 -20 51 10 82 83 37 262 -83 327 -27 15 -57 27 -67 27 -12 -1 -4 -9 21
-22z"/>
<path d="M8977 2892 c-119 -68 -163 -244 -81 -326 31 -30 42 -32 51 -10 4 11
-2 23 -17 34 -47 35 0 68 49 34 23 -16 23 -16 16 7 -4 13 -21 40 -36 59 -24
28 -29 44 -29 85 0 58 21 85 95 123 28 15 34 21 20 21 -11 1 -42 -12 -68 -27z"/>
<path d="M9140 2898 c0 -13 -5 -29 -12 -36 -22 -22 1 -24 42 -3 22 11 51 21
63 21 21 1 21 1 -3 14 -14 8 -40 17 -57 21 -30 6 -33 4 -33 -17z"/>
<path d="M2027 2820 c3 -11 9 -17 14 -15 10 7 1 35 -11 35 -5 0 -6 -9 -3 -20z"/>
<path d="M8457 2825 c-4 -8 -2 -17 2 -20 5 -2 11 4 14 15 6 23 -8 27 -16 5z"/>
<path d="M2031 2780 c-1 -8 -4 -26 -7 -40 -5 -22 -4 -23 6 -7 6 10 9 28 7 40
-2 12 -5 15 -6 7z"/>
<path d="M8462 2775 c0 -11 3 -29 8 -40 11 -25 11 1 0 35 -6 20 -8 21 -8 5z"/>
<path d="M2071 2742 c-12 -23 9 -59 27 -48 16 10 15 41 -2 55 -12 10 -17 8
-25 -7z"/>
<path d="M8401 2741 c-13 -24 -8 -51 8 -51 20 0 31 36 17 55 -13 18 -14 18
-25 -4z"/>
<path d="M3704 2724 c-67 -45 -145 -127 -170 -179 -32 -68 -32 -150 2 -276 26
-97 44 -119 44 -56 0 86 78 333 151 480 16 31 25 57 21 57 -5 0 -27 -12 -48
-26z"/>
<path d="M2155 2712 c8 -37 -11 -111 -30 -119 -9 -3 -36 13 -65 37 l-50 42 0
-42 c0 -46 29 -103 61 -121 11 -6 28 -24 38 -40 l19 -30 31 68 c40 85 49 148
27 191 -23 44 -40 52 -31 14z"/>
<path d="M8320 2708 c-32 -53 -26 -97 30 -222 l22 -48 18 30 c11 17 28 35 39
41 32 18 61 75 61 121 l0 42 -49 -41 c-27 -23 -53 -41 -59 -41 -18 0 -44 82
-37 117 8 42 0 42 -25 1z"/>
<path d="M1086 2677 c-3 -12 -6 -33 -6 -46 l0 -23 23 21 c12 12 31 27 42 35
24 17 20 21 -21 29 -27 5 -33 3 -38 -16z"/>
<path d="M9368 2693 c-16 -2 -28 -8 -28 -13 0 -4 12 -16 28 -26 15 -9 32 -25
39 -33 11 -14 12 -13 13 9 0 32 -10 70 -19 69 -3 -1 -18 -4 -33 -6z"/>
<path d="M1378 2603 c-22 -26 -41 -64 -34 -71 10 -9 54 38 59 64 5 28 -4 31
-25 7z"/>
<path d="M9097 2596 c5 -26 49 -73 59 -64 11 11 -39 88 -56 88 -4 0 -5 -11 -3
-24z"/>
<path d="M1147 2435 c-16 -11 -17 -17 -6 -36 l12 -23 9 24 c13 37 7 52 -15 35z"/>
<path d="M9331 2434 c0 -11 4 -28 8 -39 8 -19 8 -19 20 4 7 12 11 24 9 25 -2
1 -11 8 -20 15 -16 12 -18 11 -17 -5z"/>
<path d="M4215 2340 c-17 -27 -17 -116 0 -155 11 -25 19 -73 21 -130 2 -49 6
-110 9 -135 10 -64 56 -150 112 -205 48 -49 170 -116 208 -114 11 0 2 6 -20
13 -160 51 -265 169 -265 297 0 50 5 64 40 117 22 33 40 69 40 81 0 14 -28 51
-71 97 -66 70 -71 78 -66 110 6 35 3 42 -8 24z"/>
<path d="M5214 1999 c1 -142 1 -145 34 -209 18 -36 50 -86 72 -110 l39 -45 1
37 c1 93 -53 285 -113 405 l-34 66 1 -144z"/>
<path d="M5111 2024 c0 -11 3 -14 6 -6 3 7 2 16 -1 19 -3 4 -6 -2 -5 -13z"/>
<path d="M5098 1946 c-16 -137 -140 -272 -302 -328 -28 -9 -41 -17 -30 -18 12
0 57 18 101 40 95 47 172 123 210 206 23 51 43 144 31 144 -3 0 -8 -20 -10
-44z"/>
<path d="M6110 1895 c-36 -7 -105 -14 -155 -14 l-90 -1 40 -26 c68 -45 105
-86 170 -184 70 -107 110 -148 175 -182 40 -21 58 -23 176 -23 127 0 131 -1
163 -27 42 -36 68 -39 47 -5 -8 12 -31 69 -51 127 -70 199 -121 277 -209 322
-52 27 -174 33 -266 13z m143 -25 c23 0 97 -87 121 -140 36 -80 33 -94 -24
-95 -25 -1 -77 -5 -117 -10 -91 -10 -114 3 -133 72 -10 36 -28 62 -69 102
l-55 54 39 -5 c72 -11 95 -24 95 -58 0 -37 35 -62 86 -62 48 0 60 13 43 48
-22 45 -58 64 -132 71 -67 6 -87 18 -44 28 40 9 111 10 147 3 19 -4 38 -8 43
-8z"/>
<path d="M4628 1593 c23 -2 59 -2 80 0 20 2 1 4 -43 4 -44 0 -61 -2 -37 -4z"/>
<path d="M5165 1256 c-133 -32 -258 -139 -334 -285 -41 -80 -72 -175 -70 -221
1 -22 2 -22 9 6 18 78 74 138 145 155 28 6 62 18 76 25 27 13 93 83 86 90 -2
2 -22 -6 -45 -18 -41 -23 -41 -23 -76 -4 -52 28 -56 53 -15 87 81 67 217 118
315 119 46 0 97 -31 151 -93 36 -41 40 -53 46 -147 5 -73 24 -119 70 -167 41
-44 52 -42 27 4 -30 56 -26 89 15 130 19 19 40 33 47 31 8 -3 15 -32 18 -83 4
-69 8 -79 27 -86 16 -6 29 -3 45 11 20 16 23 27 23 97 0 68 -4 85 -30 131 -92
168 -332 266 -530 218z"/>
<path d="M6111 1215 c1 -19 18 -51 18 -35 0 8 -4 22 -9 30 -5 8 -9 11 -9 5z"/>
<path d="M6142 1120 c0 -8 4 -26 8 -40 6 -20 8 -21 8 -5 0 11 -3 29 -8 40 -5
12 -8 14 -8 5z"/>
<path d="M6162 1020 c0 -14 2 -19 5 -12 2 6 2 18 0 25 -3 6 -5 1 -5 -13z"/>
<path d="M6297 920 c3 -41 7 -77 9 -79 7 -8 2 94 -6 124 -5 18 -6 -1 -3 -45z"/>
<path d="M6173 895 c0 -33 2 -45 4 -27 2 18 2 45 0 60 -2 15 -4 0 -4 -33z"/>
<path d="M5137 906 c-20 -8 -52 -25 -71 -40 -36 -27 -86 -116 -86 -150 1 -12
9 4 20 34 32 94 121 160 215 160 37 0 123 -40 149 -69 10 -11 19 -34 20 -51 1
-36 20 -45 24 -11 3 17 -9 35 -45 70 -69 67 -144 86 -226 57z"/>
<path d="M6153 758 c-7 -34 -10 -64 -8 -66 5 -6 28 104 24 117 -3 7 -10 -16
-16 -51z"/>
<path d="M6303 765 c0 -27 2 -38 4 -22 2 15 2 37 0 50 -2 12 -4 0 -4 -28z"/>
<path d="M5354 685 c-19 -46 -18 -56 11 -125 14 -33 25 -69 25 -80 0 -30 13
-25 55 21 47 53 79 122 70 156 -6 24 -7 25 -20 7 -8 -11 -15 -32 -15 -49 0
-16 -10 -46 -23 -65 l-22 -35 -3 73 c-2 63 -5 72 -17 62 -17 -14 -19 -8 -15
43 2 40 -28 35 -46 -8z"/>
<path d="M6279 643 c-9 -38 -15 -70 -13 -72 5 -6 36 109 32 124 -2 8 -10 -15
-19 -52z"/>
<path d="M4753 655 c0 -27 2 -38 4 -22 2 15 2 37 0 50 -2 12 -4 0 -4 -28z"/>
<path d="M4971 639 c1 -30 5 -65 9 -79 4 -14 5 8 2 50 -6 89 -12 106 -11 29z"/>
<path d="M6112 622 c-31 -81 -113 -202 -173 -256 -86 -77 -187 -126 -305 -145
-34 -6 -40 -9 -19 -10 17 0 55 6 85 14 166 44 309 167 394 337 26 53 46 102
44 108 -1 5 -13 -16 -26 -48z"/>
<path d="M4762 575 c0 -16 2 -22 5 -12 2 9 2 23 0 30 -3 6 -5 -1 -5 -18z"/>
<path d="M6223 497 c-86 -174 -249 -321 -459 -412 -44 -19 -73 -35 -65 -35 21
0 194 84 248 121 64 44 156 132 208 199 41 53 110 178 103 186 -2 2 -18 -25
-35 -59z"/>
<path d="M4775 510 c10 -67 83 -198 152 -271 108 -114 231 -181 405 -219 107
-23 154 -24 223 -5 l50 14 -77 -6 c-105 -8 -158 12 -194 72 -24 42 -62 75 -85
75 -8 0 -6 -7 4 -18 32 -35 16 -92 -25 -92 -26 0 -155 66 -202 103 -23 19 -49
53 -64 86 -23 49 -24 59 -14 98 16 57 14 111 -3 148 l-13 30 -1 -31 c-2 -59
-71 -113 -107 -83 -8 6 -23 39 -34 73 -13 38 -19 48 -15 26z"/>
<path d="M4990 527 c0 -4 11 -29 24 -55 31 -60 127 -152 196 -187 62 -32 156
-65 179 -65 9 1 -16 11 -55 24 -143 46 -258 133 -314 236 -16 30 -30 51 -30
47z"/>
<path d="M5423 213 c9 -2 25 -2 35 0 9 3 1 5 -18 5 -19 0 -27 -2 -17 -5z"/>
<path d="M5503 203 c15 -2 37 -2 50 0 12 2 0 4 -28 4 -27 0 -38 -2 -22 -4z"/>
<path d="M5630 40 c-20 -6 -21 -8 -5 -8 11 0 29 3 40 8 25 11 -1 11 -35 0z"/>
</g>
</svg>
