<svg height="512pt" viewBox="0 0 512 512.04644" width="512pt" xmlns="http://www.w3.org/2000/svg"><path d="m338.96875 216.878906h-.085938c-.597656 1.277344-1.109374 2.644532-1.707031 4.007813-10.078125 19.203125-23.027343 36.757812-38.402343 52.054687 6.917968-16.070312 7.824218-34.089844 2.5625-50.773437-6.316407-19.882813-23.210938-42.152344-62.378907-59.988281 13.332031-1.617188 26.769531-2.1875 40.191407-1.707032.9375 0 1.960937.085938 2.902343.085938 2.984375.167968 5.886719.339844 8.875.683594 2.046875.167968 4.007813.425781 5.972657.679687 1.449218.171875 2.984374.429687 4.4375.683594 1.277343.171875 2.558593.425781 3.753906.683593 1.535156.339844 2.988281.683594 4.4375 1.023438 5.527344 1.339844 10.882812 3.316406 15.957031 5.886719 2.328125 1.203125 4.527344 2.632812 6.570313 4.269531 2.953124 2.289062 5.46875 5.09375 7.425781 8.277344.625 1.035156 1.164062 2.121094 1.621093 3.242187 1.050782 2.417969 1.738282 4.976563 2.046876 7.59375v.085938c.617187 7.964843-.820313 15.957031-4.179688 23.210937zm0 0" fill="#e91e63"/><path d="m238.871094 162.179688c-3.753906-.511719-110.421875-14.507813-85.246094 128 0 0-33.539062-40.789063-31.746094-84.90625.085938-1.621094.171875-3.160157.339844-4.695313.171875-1.535156.34375-3.242187.597656-4.863281.308594-1.78125.707032-3.546875 1.195313-5.289063.804687-3.722656 1.976562-7.351562 3.5-10.839843.683593-1.707032 1.449219-3.414063 2.304687-5.117188.128906-.21875.242188-.449219.339844-.683594.855469-1.621094 1.792969-3.242187 2.730469-4.78125 1.109375-1.789062 2.21875-3.496094 3.5-5.203125.085937-.085937.085937-.171875.167969-.257812 1.039062-1.449219 2.148437-2.84375 3.328124-4.179688 1.625-1.960937 3.328126-3.839843 5.207032-5.71875 33.367187-33.363281 91.222656 6.65625 93.78125 8.535157zm0 0" fill="#e91e63"/><path d="m298.691406 273.113281c-2.441406 14.773438-8.414062 28.734375-17.410156 40.703125v.085938c-7.851562 10.261718-18.441406 18.101562-30.546875 22.613281-.941406.339844-1.964844.683594-2.988281 1.023437-1.195313.425782-2.476563.769532-3.753906 1.109376-1.453126.339843-2.902344.769531-4.4375 1.023437-1.367188.257813-2.816407.511719-4.265626.683594-1.210937.257812-2.4375.429687-3.671874.511719-1.363282.171874-2.816407.257812-4.265626.339843-1.792968.085938-3.585937.171875-5.460937.171875-42.667969 0-76.800781-17.066406-68.265625-51.199218 0 0 17.066406 17.066406 59.730469 17.066406 13.863281-.347656 27.546875-3.238282 40.363281-8.535156 16.0625-6.492188 31.1875-15.101563 44.972656-25.597657zm0 0" fill="#e91e63"/><path d="m196.972656 274.5625c-6.609375-10.652344-9.824218-23.0625-9.214844-35.582031" fill="#c52828"/><path d="m197.398438 274.308594-.425782.253906c10.324219 14.933594 29.183594 22.441406 56.660156 23.894531l.085938.253907c-12.816406 5.296874-26.5 8.1875-40.363281 8.535156-42.664063 0-59.730469-17.066406-59.730469-17.066406-25.175781-142.507813 81.492188-128.511719 85.246094-128h.085937c39.167969 17.835937 56.0625 40.105468 62.378907 59.988281-3.585938-.171875-7.339844-.253907-11.179688-.253907-70.398438 0-88.40625 32.253907-92.757812 52.394532zm0 0" fill="#f44335"/><path d="m291.4375 161.242188h-.511719c-2.988281-.34375-5.890625-.515626-8.875-.683594-.941406 0-1.964843-.085938-2.902343-.085938-13.421876-.480468-26.859376.089844-40.191407 1.707032h-.085937c-2.558594-1.878907-60.414063-41.898438-93.78125-8.535157-1.878906 1.878907-3.582032 3.757813-5.207032 5.71875-1.179687 1.335938-2.289062 2.730469-3.328124 4.179688-.082032.085937-.082032.171875-.167969.257812-1.28125 1.707031-2.390625 3.414063-3.5 5.203125-.9375 1.539063-1.875 3.160156-2.730469 4.78125-.097656.234375-.210938.464844-.339844.683594-.855468 1.703125-1.621094 3.410156-2.304687 5.117188-1.484375 3.503906-2.65625 7.128906-3.5 10.839843-.425781 1.789063-.765625 3.582031-1.109375 5.375l-.085938-.085937c-8.214844-8.761719-15.667968-18.210938-22.269531-28.246094-.683594-1.195312-1.367187-2.472656-1.964844-3.753906-.867187-1.578125-1.582031-3.234375-2.132812-4.949219-.332031-.742187-.589844-1.511719-.765625-2.304687-1.152344-3.675782-1.753906-7.5-1.792969-11.347657 0-25.601562 34.132813-59.734375 110.933594-59.734375 1.960937 0 3.925781.085938 5.886719.257813.6875.011719 1.371093.070312 2.046874.167969 1.148438.054687 2.289063.195312 3.414063.429687.808594.027344 1.609375.140625 2.390625.339844.148438-.015625.296875.015625.425781.085937 1.609375.25 3.207031.589844 4.777344 1.023438 1.964844.511718 3.925781 1.023437 5.804687 1.707031 1.875.683594 3.667969 1.277344 5.460938 2.046875s3.414062 1.621094 5.121094 2.476562c1.707031.851563 3.328125 1.875 4.949218 2.8125.082032.105469.207032.171876.339844.171876 1.449219.9375 2.902344 1.878906 4.351563 2.988281 1.453125 1.109375 2.644531 2.046875 3.925781 3.070312l3.839844 3.328125c.085937.085938.171875.171875.257812.171875 2.183594 2.027344 4.261719 4.160157 6.226563 6.398438 1.621093 1.792969 3.160156 3.585937 4.609375 5.460937 2.941406 3.804688 5.675781 7.765625 8.191406 11.863282 1.109375 1.792968 2.132812 3.5 3.074219 5.203124 1.363281 2.5625 2.730469 5.035157 3.925781 7.597657 1.023438 2.132812 1.960938 4.265625 2.898438 6.3125.941406 2.046875 1.792968 4.183593 2.476562 6.144531.851562 1.964844 1.535156 3.925781 2.21875 5.804688zm0 0" fill="#ad1457"/><path d="m281.28125 313.902344c-1.238281 15.339844-5.746094 30.238281-13.226562 43.691406-.9375 1.621094-1.960938 3.242188-2.984376 4.777344-.171874.277344-.375.535156-.597656.769531-1.035156 1.5625-2.144531 3.070313-3.328125 4.519531-2.308593 3.011719-4.878906 5.8125-7.679687 8.363282-.941406.941406-1.964844 1.792968-2.902344 2.644531-2.074219 1.765625-4.238281 3.417969-6.484375 4.949219-1.113281.847656-2.285156 1.617187-3.5 2.304687-1.195313.769531-2.476563 1.539063-3.753906 2.21875-1.28125.683594-2.5625 1.367187-3.925781 2.050781-1.367188.679688-2.730469 1.277344-4.183594 1.875-2.898438 1.195313-5.886719 2.304688-9.042969 3.328125-6.835937 2.175781-13.867187 3.691407-20.992187 4.523438-6.453126.808593-12.953126 1.207031-19.457032 1.195312-93.867187 0-42.667968-102.402343-25.597656-110.933593-8.535156 34.132812 25.597656 51.199218 68.265625 51.199218 1.875 0 3.667969-.085937 5.460937-.171875 1.449219-.082031 2.902344-.167969 4.265626-.339843 1.234374-.082032 2.460937-.253907 3.671874-.511719 1.449219-.171875 2.898438-.425781 4.265626-.683594 1.535156-.253906 2.984374-.683594 4.4375-1.023437 1.277343-.339844 2.558593-.683594 3.753906-1.109376 1.023437-.339843 2.046875-.683593 2.988281-1.023437 12.105469-4.511719 22.695313-12.351563 30.546875-22.613281zm0 0" fill="#ad1457"/><path d="m298.773438 272.941406c0 .085938 0 .085938-.082032.171875-13.785156 10.496094-28.910156 19.105469-44.972656 25.597657l-.085938-.253907c-27.476562-1.453125-46.335937-8.960937-56.660156-23.894531l.425782-.253906c4.351562-20.140625 22.359374-52.394532 92.757812-52.394532 3.839844 0 7.59375.082032 11.179688.253907 5.261718 16.683593 4.355468 34.703125-2.5625 50.773437zm0 0" fill="#c52828"/><path d="m341.355469 307.246094c-22.78125 37.972656-48.125 47.785156-73.300781 50.347656 7.480468-13.453125 11.988281-28.351562 13.226562-43.691406v-.085938c8.996094-11.96875 14.96875-25.929687 17.410156-40.703125.082032-.085937.082032-.085937.082032-.171875 15.375-15.296875 28.324218-32.851562 38.402343-52.054687 8.277344 15.789062 23.894531 53.503906 4.179688 86.359375zm0 0" fill="#f44335"/><path d="m375.488281 332.847656c-.851562 1.621094-1.875 3.242188-2.8125 4.691406-.671875 1.179688-1.414062 2.320313-2.21875 3.414063-.257812.339844-.429687.683594-.683593 1.023437-.683594.9375-1.367188 1.960938-2.050782 2.816407-.9375 1.28125-1.875 2.390625-2.8125 3.5-1.621094 1.875-3.246094 3.667969-4.949218 5.289062-.941407.9375-1.878907 1.792969-2.816407 2.558594-.640625.644531-1.324219 1.246094-2.050781 1.792969-1.25 1.097656-2.558594 2.121094-3.925781 3.070312-6.585938 4.707032-13.910157 8.285156-21.671875 10.582032-1.109375.34375-2.21875.683593-3.328125.941406-.21875.085937-.449219.144531-.683594.167968-1.363281.34375-2.730469.597657-4.097656.855469-.949219.253907-1.917969.421875-2.898438.511719l-3.585937.511719c-18.207032 1.523437-36.53125-.832031-53.757813-6.914063 1.183594-1.449218 2.292969-2.957031 3.328125-4.519531.222656-.234375.425782-.492187.597656-.769531 1.023438-1.621094 1.960938-3.15625 2.898438-4.777344h.085938c25.175781-2.5625 50.519531-12.375 73.300781-50.347656 19.714843-32.855469 4.097656-70.570313-4.179688-86.359375.597657-1.363281 1.109375-2.730469 1.707031-4.007813h.085938c18.6875 11.605469 72.105469 51.882813 36.519531 115.96875zm0 0" fill="#ad1457"/><path d="m369.773438 341.960938c-30.464844 43.175781-80.035157 35.234374-108.628907 25.699218-15.628906 18.746094-38.1875 30.347656-62.523437 32.15625 37.160156 28.601563 95.453125 82.710938 134.203125 43.960938 45.363281-45.363282 43.828125-77.320313 36.949219-101.816406zm0 0" fill="#c52828"/><path d="m342.96875 193.574219c.621094 7.980469-.796875 15.988281-4.121094 23.269531 18.652344 11.554688 72.277344 51.855469 36.640625 116.003906-1.742187 3.144532-3.65625 6.191406-5.734375 9.128906 6.367188 20.324219 4.210938 42.359376-5.972656 61.0625 45.96875-30.941406 114.109375-71.574218 114.109375-138.460937 0-46.335937-82.132813-56.730469-134.921875-71.003906zm0 0" fill="#f44335"/><path d="m392.554688 76.847656c-31.109376-31.113281-73.4375 10.589844-142.847657 23.039063 19.632813 15.945312 34.136719 37.3125 41.710938 61.4375 24.628906 2.5 49.09375 10.589843 51.636719 32.324219 31.753906 8.585937 73.992187 15.824218 102.691406 30.269531-31.855469-59.238281-19.269532-113.152344-53.191406-147.070313zm0 0" fill="#c52828"/><path d="m198.621094 399.816406h.050781c-6.449219.84375-12.945313 1.277344-19.449219 1.296875-93.867187 0-42.667968-102.402343-25.597656-110.933593 0 0-33.539062-40.808594-31.710938-84.882813-11.476562 81.09375-102.902343 155.070313-53.625 204.347656 47.328126 47.328125 80.113282 21.769531 165.648438 17.621094-12.832031-9.417969-24.898438-19.4375-35.316406-27.449219zm0 0" fill="#f44335"/><g fill="#c52828"><path d="m122.902344 195.785156c-11.03125-10.851562-20.066406-23.5625-26.691406-37.546875-37.308594 27.714844-87.65625 45.96875-87.65625 97.808594 0 45.5 25.875 65.175781 50.03125 94.179687 14.210937-42 55.828124-91.945312 63.328124-144.929687.144532-3.1875.480469-6.363281 1.007813-9.511719zm0 0"/><path d="m145.089844 34.179688c-61.765625 20.582031-85.332032 85.332031-74.828125 141.507812 8.839843-5.675781 17.722656-11.339844 25.964843-17.476562-1.519531-4.199219-2.308593-8.632813-2.335937-13.097657 0-25.601562 34.132813-59.734375 110.933594-59.734375 16.136719-.140625 31.882812 4.949219 44.882812 14.507813 18.324219-3.519531 36.277344-8.742188 53.625-15.609375-70.570312-10.589844-114.421875-64.707032-158.242187-50.097656zm0 0"/><path d="m273.089844 8.578125c-39.492188 0-43.570313 20.277344-74.640625 33.476563 29.105469 13.398437 62.0625 35.78125 104.882812 42.191406 16-6.042969 30.089844-12.035156 42.667969-15.550782-26.128906-26.390624-38.28125-60.117187-72.910156-60.117187zm0 0"/><path d="m422.132812 151.9375c4.132813 25.050781 12.09375 49.3125 23.613282 71.9375 18.105468 9.105469 30.71875 21.113281 31.929687 38.160156 13.449219-15.863281 25.8125-33.132812 25.8125-48.65625 0-22.570312-48.492187-41.410156-81.355469-61.441406zm0 0"/><path d="m233.9375 427.265625c-42.605469 2.066406-72.121094 9.429687-96.867188 10.472656 29.0625 28.398438 62.582032 65.773438 93.351563 65.773438 33.332031 0 45.535156-29.234375 60.589844-47.207031-20.890625-5.46875-40.355469-15.371094-57.074219-29.039063zm0 0"/><path d="m433.953125 351.148438c-21.964844 19.117187-45.40625 36.464843-70.109375 51.875-8.136719 15.128906-18.605469 28.882812-31.019531 40.753906-10.796875 11.191406-26.644531 15.941406-41.8125 12.539062-6.828125 8.128906-13.050781 18.550782-20.910157 27.542969 62.722657 2.585937 117.335938-17.894531 148.054688-48.613281 19.722656-19.722656 19.5-56.523438 15.796875-84.097656zm0 0"/></g><path d="m452.085938 158.9375c-7.585938-4.097656-15.285157-8.296875-22.351563-12.476562l-.304687-1.527344c-5.539063-27.792969-10.769532-54.050782-30.839844-74.121094-14.636719-14.632812-31.230469-15.878906-49.648438-11.628906-5.808594-6.28125-11.09375-12.894532-16.210937-19.390625-15.128907-19.539063-30.816407-39.746094-59.640625-39.746094-19.546875-.675781-38.613282 6.148437-53.289063 19.070313-6.636719 5.242187-13.808593 9.769531-21.394531 13.507812-19.132812-8.414062-37.179688-12.800781-56.011719-6.535156-65.035156 21.664062-89.667969 88.414062-81.375 145.398437-30.875 19.941407-60.9960935 41.6875-60.9960935 84.558594 0 41.011719 19.3515625 62.710937 39.8437505 85.683594 3.019531 3.410156 6.089843 6.9375 9.144531 10.503906-6.824219 23.039063-5.640625 44.558594 13.246093 63.445313 24.019532 24.019531 44.988282 30.71875 69.035157 30.71875.757812 0 1.558593-.066407 2.328125-.085938 2.558594 2.5 5.121094 5.019531 7.679687 7.59375 27.367188 27.265625 58.402344 58.140625 89.121094 58.140625 16.609375.078125 32.429687-7.066406 43.351563-19.578125 2.335937.0625 4.683593.148438 7.011718.148438 57.890625 0 110.933594-18.835938 143.40625-51.339844 21.136719-21.136719 22.125-58.085938 18.710938-86.925782 24.535156-23.828124 43.382812-52.910156 43.46875-89.523437 13.058594-15.609375 25.652344-33.632813 25.652344-51.449219 0-22.1875-29.117188-37.84375-59.9375-54.441406zm-65.5625-76.058594c16.410156 16.410156 20.933593 39.109375 26.171874 65.390625.339844 1.707031.714844 3.492188 1.066407 5.222657-.003907.035156-.003907.074218 0 .109374.410156 2.007813.851562 4.039063 1.253906 6.070313.238281 1.109375.460937 2.183594.699219 3.300781.8125 3.773438 1.707031 7.59375 2.636718 11.441406.316407 1.265626.625 2.519532.957032 3.800782 1.066406 4.144531 2.234375 8.328125 3.542968 12.550781.296876.964844.628907 1.9375.945313 2.910156 1.355469 4.199219 2.84375 8.421875 4.515625 12.6875.136719.359375.238281.699219.375 1.066407-18.390625-6.046876-37.078125-11.152344-55.988281-15.296876-4.265625-1.015624-8.53125-2.015624-12.628907-3.023437l-4.191406-1.046875c-1.867187-.460938-3.667968-.933594-5.476562-1.402344-.625-2.242187-1.464844-4.421875-2.507813-6.5-.179687-.335937-.445312-.605468-.632812-.941406-.875-1.5625-1.871094-3.058594-2.976563-4.46875-.574218-.742188-1.171875-1.453125-1.800781-2.144531-1.1875-1.328125-2.460937-2.578125-3.816406-3.734375-.597657-.515625-1.21875-.992188-1.84375-1.46875-1.492188-1.152344-3.050781-2.210938-4.667969-3.175782-.671875-.410156-1.355469-.792968-2.054688-1.167968-1.707031-.9375-3.542968-1.84375-5.523437-2.6875-.773437-.332032-1.578125-.640625-2.378906-.949219-1.546875-.597656-3.171875-1.164063-4.871094-1.707031-1.484375-.46875-2.988281-.894532-4.523437-1.304688-1.179688-.316406-2.363282-.621094-3.617188-.902344-1.65625-.386718-3.3125-.734374-5.003906-1.050781l-.324219-.050781c-2.089844-.386719-4.171875-.777344-6.277344-1.066406l-.0625-.136719c-1.320312-3.414063-2.855469-7.03125-4.5625-10.746094-.25-.527343-.472656-1.039062-.726562-1.570312-1.707031-3.597657-3.609375-7.261719-5.710938-10.945313-.339843-.597656-.664062-1.1875-1.023437-1.785156-2.175782-3.710938-4.5625-7.40625-7.183594-11.042969-.324219-.449219-.65625-.894531-.988281-1.339843-2.816407-3.828126-5.863281-7.480469-9.125-10.9375-.066407-.070313-.109375-.144532-.167969-.207032 3.734375-.945312 7.3125-1.996094 10.878906-3.054687.75-.222657 1.5625-.417969 2.304688-.648438 13.8125-4.214843 26.382812-9.105469 38.015625-13.652343 33.886719-13.21875 52.265625-19.414063 67.292969-4.394532zm-29.011719 159.726563.117187.121093c1.410156 1.464844 2.78125 3.027344 4.128906 4.632813l1.195313 1.46875c1.023437 1.269531 2.015625 2.558594 2.988281 3.941406.347656.496094.707032.972657 1.050782 1.476563 1.234374 1.816406 2.421874 3.683594 3.515624 5.640625.167969.304687.324219.640625.484376.945312.914062 1.707031 1.75 3.414063 2.5625 5.171875.269531.632813.535156 1.273438.792968 1.921875.671875 1.703125 1.277344 3.410157 1.816406 5.117188.160157.53125.351563 1.042969.496094 1.578125.632813 2.292968 1.128906 4.621094 1.492188 6.972656.085937.546875.121094 1.109375.1875 1.707031.25 1.957031.402344 3.925781.453125 5.898438v2.285156c-.027344 2.28125-.167969 4.558594-.425781 6.828125-.054688.410156-.0625.808594-.113282 1.21875-.398437 2.8125-.96875 5.59375-1.707031 8.335938-.1875.734374-.441406 1.484374-.65625 2.230468-.652344 2.234375-1.4375 4.507813-2.347656 6.824219-.324219.855469-.640625 1.707031-.996094 2.507813-1.339844 3.183593-2.847656 6.289062-4.515625 9.3125-1.476562 2.652343-3.105469 5.214843-4.796875 7.679687-.535156.785156-1.109375 1.5-1.703125 2.253906-1.027344 1.371094-2.058594 2.71875-3.132812 3.976563-.675782.800781-1.367188 1.550781-2.058594 2.300781-.988282 1.066406-1.988282 2.101563-3.003906 3.082031-.765626.734375-1.542969 1.449219-2.328126 2.132813-.988281.855469-2.003906 1.707031-3.03125 2.492187-.851562.640625-1.636718 1.269532-2.472656 1.859375-1.042968.734375-2.097656 1.398438-3.148437 2.050781-.855469.527344-1.707031 1.074219-2.558594 1.550782-1.109375.613281-2.246094 1.160156-3.414063 1.707031-.855468.402344-1.65625.851563-2.5 1.203125-1.367187.589844-2.757812 1.082031-4.140624 1.570312-1.175782.421876-2.363282.804688-3.558594 1.152344-1.414063.410156-2.824219.851563-4.265625 1.144532-.964844.21875-1.945313.367187-2.917969.542968-.972656.179688-2.203125.417969-3.3125.574219-1.109375.152344-2.074219.238281-3.113281.339844-1.042969.101562-2.101563.214843-3.148438.273437-1.050781.058594-2.152343.101563-3.226562.128906-1.074219.023438-2.03125 0-3.054688 0-1.023437 0-2.191406 0-3.285156-.078124-1.09375-.074219-1.980469-.101563-2.96875-.171876-.992187-.066406-2.203125-.160156-3.304687-.269531-1.101563-.113281-1.960938-.222656-2.941407-.351562-.984375-.128907-2.160156-.273438-3.226562-.433594-1.066407-.164063-2.015625-.34375-3.011719-.523437-1-.179688-2.050781-.355469-3.054688-.5625l-.375-.085938c21.117188-4.265625 45.71875-16.125 67.597657-52.597656 12.195312-22.230469 14.144531-48.660156 5.34375-72.441406 1.261719 1.066406 2.433593 2.167968 3.574219 3.363281zm-6.632813 165.90625c-1.960937 3.070312-4.136718 6.171875-6.527344 9.300781l-.375.496094c-2.304687 3.011718-4.804687 6.050781-7.5 9.113281l-.972656 1.089844c-2.722656 3.046875-5.589844 6.109375-8.671875 9.199219-1.460937 1.449218-3.023437 2.789062-4.675781 4.011718-.359375.265625-.714844.511719-1.074219.757813-1.378906.953125-2.820312 1.808593-4.320312 2.5625-.21875.109375-.433594.246093-.65625.347656-1.652344.785156-3.363281 1.4375-5.117188 1.945313-.589843.171874-1.203125.273437-1.8125.402343-.972656.234375-1.953125.421875-2.941406.5625-1.179687.15625-2.375.28125-3.59375.324219h-.453125c-3.234375.0625-6.46875-.210938-9.648438-.808594-9.765624-2.09375-19.132812-5.71875-27.761718-10.746094-15.335938-9.113281-29.976563-19.355468-43.792969-30.640624l-2.441406-1.921876c17.46875-4.433593 33.269531-13.847656 45.484375-27.09375 1.152344.34375 2.371094.667969 3.574218 1l1.203126.332032c3.074218.8125 6.316406 1.554687 9.667968 2.21875l1.605469.324218c3.226563.605469 6.5625 1.09375 9.976563 1.476563.785156.09375 1.542968.195313 2.335937.273437 3.246094.316407 6.5625.476563 9.917969.527344.65625 0 1.289062.105469 1.945312.105469 22.316406.652344 43.992188-7.488281 60.363282-22.667969.078124 1.128906.121093 2.273438.144531 3.414063v1.007812c0 2.003907-.085938 4.058594-.261719 6.167969-.0625.597656-.113281 1.1875-.179688 1.792969-.152343 1.265625-.332031 2.5625-.5625 3.847656-.257812 1.453125-.566406 2.929687-.941406 4.429687-.21875.90625-.46875 1.828126-.730468 2.75-.566407 1.925782-1.179688 3.890626-1.949219 5.914063-.195313.5-.425781 1.03125-.628907 1.542969-.941406 2.320312-1.964843 4.675781-3.191406 7.109375l-.113281.238281c-1.550781 3.058594-3.332031 6.15625-5.339844 9.292969zm-179.738281-16.273438c-1.707031-.128906-3.222656-.351562-4.785156-.570312-1.5625-.222657-2.988281-.34375-4.351563-.617188-2.589844-.503906-5.140625-1.195312-7.628906-2.074219-.742188-.261718-1.367188-.613281-2.074219-.910156-1.664062-.671875-3.277343-1.457031-4.832031-2.347656-.6875-.410156-1.304688-.855469-1.945312-1.324219-1.300782-.894531-2.527344-1.894531-3.667969-2.984375-.539063-.523437-1.066407-1.050781-1.554688-1.605468-1.046875-1.203126-1.984375-2.5-2.796875-3.875-.339844-.554688-.726562-1.074219-1.023437-1.707032-1.074219-2.027344-1.90625-4.171875-2.484375-6.390625-.480469-2.042969-.808594-4.121093-.980469-6.210937-.058594-.648438-.070313-1.316406-.101563-1.972656-.078124-1.519532-.09375-3.046876-.042968-4.589844 0-.71875.058594-1.441406.109375-2.167969.121093-1.65625.316406-3.320313.5625-4.992187.078125-.539063.128906-1.082032.222656-1.621094.375-2.195313.839844-4.378906 1.390625-6.554688.128906-.519531.289062-1.023437.4375-1.535156.449219-1.707031.941406-3.367188 1.484375-4.984375.246094-.734375.492187-1.449219.75-2.167969.511719-1.453125 1.050781-2.878906 1.613281-4.265625.265625-.664062.527344-1.339843.800782-1.996093.71875-1.707032 1.46875-3.414063 2.238281-5.007813.117187-.257813.238281-.53125.355469-.777344.855468-1.835937 1.792968-3.558593 2.699218-5.214843.09375-.179688.1875-.332032.28125-.503907.074219.238281.203125.445313.289063.675781.570312 1.605469 1.246093 3.175782 2.023437 4.691407.238282.46875.476563.929687.742188 1.390625.988281 1.789062 2.109375 3.5 3.351562 5.121094 12.332032 15.726562 37.710938 24.765624 69.667969 24.765624 4.277344.003907 8.554687-.265624 12.800781-.8125 11.667969-1.335937 22.894532-5.246093 32.867188-11.453124l.242187-.117188c-1.785156 5.332031-4.09375 10.480469-6.886719 15.359375-.09375.136719-.25.203125-.335937.351563-1.773437 3.125-3.769531 6.117187-5.972656 8.957031-.046875.039062-.09375.078125-.136719.121093-1.539062 1.945313-3.1875 3.804688-4.929688 5.570313-.144531.148437-.308593.292969-.453124.445313-1.585938 1.574218-3.25 3.082031-4.984376 4.515624l-.742187.605469c-13.285156 10.085938-29.121094 16.265625-45.730469 17.84375-4.128906.527344-8.011718.851563-11.765625 1.03125-1.101562.050781-2.21875.085938-3.355469.109375-2.132812.0625-4.164062 0-6.167968 0-1.785156-.03125-3.542969-.074218-5.199219-.203125zm43.316406-297.617187c.734375.09375 1.460938.195312 2.175781.316406 3.074219.488281 6.109376 1.195312 9.078126 2.125l.480468.167969c6.628906 2.195312 12.871094 5.410156 18.507813 9.53125 14.960937 11.820312 26.585937 27.332031 33.734375 45.007812-12.472656-.375-24.953125.144531-37.351563 1.550781l-.207031-.125c-.730469-.480468-1.570312-1.015624-2.558594-1.625l-.425781-.253906c-1.035156-.640625-2.160156-1.3125-3.414063-2.039062l-.128906-.078125c-1.261718-.734375-2.660156-1.507813-4.128906-2.292969l-.640625-.351562c-1.441406-.769532-2.96875-1.554688-4.574219-2.339844l-.902344-.441406c-1.632812-.785157-3.339843-1.570313-5.121093-2.355469l-.894531-.382813c-1.851563-.804687-3.761719-1.582031-5.734376-2.332031l-.546874-.203125c-2.003907-.75-4.058594-1.460938-6.171876-2.125l-.398437-.136719c-2.117187-.65625-4.269531-1.253906-6.476563-1.792969l-.964843-.238281c-2.144531-.511719-4.320313-.949219-6.519531-1.304687l-1.09375-.171875c-2.226563-.339844-4.460938-.597657-6.714844-.75l-.90625-.042969c-2.355469-.144531-4.714844-.171875-7.074219-.078125h-.230469c-2.367187.121094-4.730468.375-7.074218.761719l-.585938.082031c-2.3125.421875-4.59375.992187-6.828125 1.707031-.332031.105469-.664063.199219-1 .308594-2.210937.738281-4.375 1.625-6.464844 2.652344-.351562.164062-.691406.351562-1.042969.53125-2.183593 1.121094-4.28125 2.398437-6.28125 3.824218-.246093.175782-.496093.382813-.742187.570313-2.214844 1.617187-4.300781 3.398437-6.246094 5.332031-2.683593 2.710938-5.203125 5.582032-7.542969 8.59375-.632812.8125-1.210937 1.628906-1.808593 2.449219-1.660157 2.277344-3.199219 4.597656-4.609375 6.964844-.433594.742187-.851563 1.476562-1.296875 2.207031-1.859375 3.296875-3.492188 6.71875-4.878907 10.242188-6.058593-6.566407-10.964843-14.105469-14.507812-22.308594-.09375-.253906-.195312-.511719-.28125-.773438-.449219-1.335937-.816406-2.699218-1.09375-4.082031-.066406-.324219-.160156-.636719-.222656-.960937-.242188-1.605469-.351563-3.226563-.324219-4.847657 0-21.257812 31.769531-51.199219 102.402344-51.199219 3.222656.019532 6.441406.257813 9.632812.707032zm119.527344 96.972656c.207031.789062.367187 1.589844.476563 2.398438v.425781c.003906.050781.003906.101562 0 .152343.386718 4.519532-.144532 9.066407-1.550782 13.375-.0625.1875-.105468.363282-.164062.550782-.453125 1.476562-1.015625 3.015625-1.636719 4.574218-4.609375 10.703126-10.617187 20.746094-17.871094 29.867188-.105469-7.9375-1.398437-15.816406-3.839843-23.371094-.058594-.164062-.085938-.324218-.152344-.488281-.195313-.597656-.324219-1.175781-.539063-1.78125-7.75-20.070313-21.832031-37.066406-40.105469-48.417969 2.933594 0 5.972657 0 8.96875.074219l2.660157.105469 1.453125.066406c2.933594.144531 5.894531.359375 8.855468.664062 17.648438 1.792969 38.777344 7.015626 43.273438 21.402344.058594.121094.128906.257813.171875.402344zm.058594 111.257812c-16.851563 28.074219-34.746094 38.945313-51.394531 43.460938 3.523437-9.570312 5.847656-19.539062 6.917968-29.679688 8.335938-11.890624 14.144532-25.363281 17.066406-39.585937 10.917969-11.492187 20.820313-23.902344 29.605469-37.09375 6.167969 16.945313 10.683594 41.429687-2.195312 62.898437zm-69.121094 15.710938c-.347656.289062-.691406.597656-1.046875.851562-1.527344 1.203126-3.117188 2.3125-4.738281 3.355469-.722657.460938-1.484375.851563-2.234375 1.328125-1.050782.605469-2.125 1.179688-3.21875 1.707032-.851563.417968-1.652344.855468-2.558594 1.238281-1.75.777343-3.542969 1.484375-5.382812 2.097656-.855469.285156-1.707032.503906-2.5625.753906-1.304688.375-2.628907.734375-3.976563 1.039063-.921875.207031-1.859375.382812-2.804687.5625-1.5.269531-3.015626.492187-4.558594.667968-.851563.101563-1.621094.222657-2.464844.289063-2.449219.257813-4.925781.394531-7.484375.394531-26.273437 0-47.277344-6.828125-56.183594-18.230468-1.125-1.441407-2.078125-3.011719-2.84375-4.675782-.246093-.546875-.347656-1.132812-.554687-1.707031-.371094-.976563-.675782-1.980469-.910156-3.003906 16.289062 7.425781 34.0625 11.03125 51.957031 10.546875 24.988281-1.3125 49.21875-9.003906 70.382812-22.347656-2.425781 5.351562-5.464843 10.40625-9.0625 15.054687 0 .050781-.09375.074219-.125.117187-1.519531 1.96875-3.148437 3.84375-4.882812 5.625l-.128907.128907c-1.46875 1.480469-3.011718 2.882812-4.625 4.207031zm-134.484375-112.863281c.136719-2.84375.433594-5.679688.898438-8.492188.554687-3.363281 1.375-6.679687 2.449218-9.914062.082032-.246094.167969-.488281.246094-.734375 2.171875-6.222656 5.25-12.09375 9.136719-17.417969.429687-.59375.855469-1.191406 1.324219-1.789063 2.039062-2.6875 4.25-5.234374 6.621093-7.628906 1.816407-1.804687 3.816407-3.410156 5.972657-4.789062.691406-.441406 1.425781-.734375 2.125-1.117188 1.410156-.808594 2.875-1.523437 4.378906-2.132812.855468-.332032 1.707031-.539063 2.628906-.800782 1.402344-.441406 2.824219-.808593 4.265625-1.09375.929687-.164062 1.878906-.257812 2.824219-.359374 1.441406-.160157 2.886718-.296876 4.34375-.332032h2.945312c1.398438.050782 2.796875.128906 4.207032.273438.980468.101562 1.960937.230468 2.953124.375 1.40625.214844 2.816407.460937 4.214844.757812.957032.199219 1.910156.410156 2.859375.640625 1.402344.347657 2.792969.730469 4.171875 1.144531.902344.273438 1.800782.539063 2.6875.851563 1.4375.480469 2.863282.980469 4.265625 1.503906l1.425781.539063c-15.660156 2.972656-30.070312 10.582031-41.359374 21.835937-17.066407 17.414063-25.277344 43.023438-24.707032 76.371094-7.28125-14.835937-11.007812-31.164063-10.878906-47.691406zm122.394531 84.148437c-22.109375-1.359375-37.1875-6.707031-46.15625-16.957031 7.851563-27.390625 37.273438-42.445313 83.480469-42.445313 1.585938 0 3.0625.078126 4.609375.101563 2.558594 12.410156 1.511719 25.296875-3.023437 37.128906-12.054688 8.882813-25.113282 16.308594-38.910157 22.128907zm-55.46875-37.855468c-.730469-4.296876-1.089843-8.652344-1.074219-13.011719 0-4.714844-3.820312-8.535157-8.53125-8.535157-4.714843 0-8.535156 3.820313-8.535156 8.535157 0 29.609375 11.453125 49.371093 34.789063 59.730469-.21875 0-.433594 0-.65625 0-18.1875 1.070312-36.265625-3.492188-51.769531-13.0625-7.449219-45.074219-1.964844-77.652344 16.519531-96.625 20.703125-21.28125 52.222656-19.171876 58.417969-18.542969 25.140624 11.625 42.472656 26.046875 51.753906 42.957031-54.289063.453125-79.382813 19.609375-90.921875 38.511719zm32.667969-219.203126c11.726562-10.695312 27.199219-16.328124 43.058594-15.675781 20.480468 0 31.820312 14.625 46.191406 33.152344 3.675781 4.734375 7.441406 9.582031 11.511719 14.378906l-.777344.296875c-4.949219 1.773438-10.007813 3.730469-15.1875 5.742188-.726563.28125-1.402344.523437-2.144531.8125-3.292969 1.285156-6.675782 2.59375-10.144532 3.925781-1.707031-.28125-3.414062-.625-5.0625-.957031-1.644531-.332032-3.410156-.640625-5.117187-1.023438-2.015625-.46875-3.984375-1.023437-5.972656-1.554687-1.570313-.425781-3.167969-.851563-4.722657-1.277344-2.148437-.648437-4.265624-1.375-6.363281-2.082031-1.289062-.445313-2.601562-.855469-3.875-1.296875-2.558593-.933594-5.121093-1.921875-7.578125-2.929688-.742187-.296875-1.5-.570312-2.234375-.851562-13.109375-5.417969-25.257812-11.742188-36.652343-17.671875l-7.679688-3.976563c4.78125-3.054687 8.875-6.136719 12.75-9.011719zm-82.246094 9.480469c4.148438-1.375 8.492188-2.0625 12.859375-2.039062 11.878907.6875 23.472657 3.902343 34.007813 9.429687.085937 0 .144531.109375.230468.144532 7.046876 3.25 14.378907 7.054687 22.144532 11.09375 8.070312 4.195312 16.542968 8.53125 25.445312 12.730468l1.125.539063c4.394532 2.027343 8.894532 4 13.527344 5.878906.484375.195313.980469.367187 1.464844.5625 3.921875 1.550781 7.941406 3.011719 12.058594 4.378906.597656.195313 1.144531.433594 1.707031.628907-1.425781.410156-2.78125.855468-4.265625 1.253906-1.085938.300781-2.167969.597656-3.269532.855468-4.324218 1.117188-8.824218 2.074219-13.378906 2.96875-6.539062-4.328124-13.667968-7.695312-21.164062-10-.683594-.214843-1.363282-.410156-2.046875-.605468-3.019531-.84375-6.082031-1.511719-9.171875-2.007813-.855469-.136719-1.707032-.324219-2.5625-.441406-3.871094-.519531-7.769532-.78125-11.671875-.792969-77.59375 0-119.46875 35.171875-119.46875 68.265625.015625 2.105469.183593 4.207031.496093 6.289063.101563.851562.238282 1.613281.390626 2.40625.054687.289062.078124.589844.136718.851562-1.851562 1.308594-3.675781 2.621094-5.585937 3.910156-.992188.65625-1.957031 1.339844-2.945313 1.996094l-.9375.613282c-4.070312-47.929688 17.746094-101.195313 70.875-118.910157zm-91.988281 291.695313c-1.066406-1.214844-2.132813-2.398438-3.191406-3.59375-19.847657-22.273438-35.515625-39.824219-35.515625-74.324219 0-36.105469 28.511718-54.402344 58.683594-73.761719l.582031-.378906c4.675781-3 9.386719-6.082031 14.09375-9.25.796875-.527344 1.597656-1.015625 2.375-1.550781 5.546875 8.917969 11.933593 17.285156 19.070312 24.984375l2.023438 2.339844c-.265625 2.132812-.417969 4.09375-.460938 5.65625-4.34375 30.71875-20.820312 60.511718-36.769531 89.34375-1.894531 3.414062-3.773438 6.828124-5.632812 10.242187l-.246094.449219c-1.558594 2.847656-3.085938 5.691406-4.582032 8.535156l-1.425781 2.722656c-1.140625 2.171875-2.242187 4.34375-3.3125 6.511719-.535156 1.082031-1.082031 2.175781-1.613281 3.25-1.109375 2.296875-2.15625 4.566406-3.171875 6.828125-.28125.679688-.625 1.347656-.90625 1.996094zm11.433594 17.570312c1-2.851562 2.160156-5.769531 3.414062-8.722656.855469-2.03125 1.808594-4.121094 2.789063-6.238281.632812-1.363281 1.28125-2.734375 1.949218-4.105469 1.859376-3.820312 3.867188-7.78125 6.023438-11.875.441406-.855469.851562-1.707031 1.320312-2.5625 1.109376-2.089844 2.273438-4.265625 3.414063-6.398438 1.800781-3.304687 3.601563-6.597656 5.460937-9.960937 2.253907-4.070313 4.53125-8.222656 6.828126-12.429687.527343-.964844 1.03125-1.9375 1.554687-2.902344 1.703125-3.113282 3.367187-6.257813 4.980469-9.4375.921875-1.777344 1.820312-3.558594 2.722656-5.359375 1.210938-2.414063 2.390625-4.855469 3.558594-7.3125 1.066406-2.226563 2.109375-4.445313 3.125-6.691407.851562-1.953124 1.707031-3.933593 2.558594-5.914062.914062-2.132812 1.902343-4.265625 2.746093-6.40625l.136719.363281c5.171875 15.503907 12.652344 30.140625 22.1875 43.410157-.265625.289062-.527344.640624-.800781.957031-.382813.441406-.761719.851562-1.144531 1.355469-.664063.8125-1.320313 1.707031-1.980469 2.5625-.355469.476562-.714844.9375-1.074219 1.449218-.785156 1.09375-1.554688 2.261719-2.328125 3.464844-.238281.359375-.46875.691406-.699219 1.058594-.996094 1.585937-1.980468 3.25-2.945312 4.992187-.257813.449219-.503906.9375-.75 1.40625-.710938 1.304688-1.410156 2.636719-2.09375 4.011719-.332032.671875-.648438 1.363281-.972656 2.046875-.578126 1.230469-1.140626 2.464844-1.703126 3.738281-.335937.757813-.652343 1.519532-.976562 2.296875-.527344 1.269531-1.03125 2.558594-1.527344 3.882813-.28125.757812-.570312 1.507812-.851562 2.285156-.519532 1.460938-1 2.945312-1.46875 4.429688-.195313.640624-.417969 1.261718-.605469 1.902343-.621094 2.109375-1.195313 4.265625-1.707031 6.382813-.101563.425781-.167969.851562-.261719 1.289062-.386719 1.707032-.734375 3.457032-1.035156 5.1875-.128907.757813-.222657 1.511719-.324219 2.269532-.203125 1.417968-.390625 2.832031-.519531 4.265624-.085938.855469-.136719 1.640626-.195313 2.460938-.085937 1.355469-.136718 2.703125-.15625 4.050781v2.398438c0 1.425781.128906 2.816406.242188 4.207031.058594.683594.09375 1.367188.167968 2.039062.234376 2.007813.578126 4.003907 1.035157 5.972657 4.121093 17.484375 18.207031 38.289062 61.898437 38.289062 3.996094 0 8.054688-.21875 12.246094-.5625 1.570312-.109375 3.25-.128906 4.777344-.28125 2.910156 2.269531 5.828125 4.566407 8.960937 7.046875l5.71875 4.523438c-3.640625.34375-7.183593.710937-10.625 1.109375h-.230469c-4.503906.511719-8.789062 1.066406-12.988281 1.632812l-4.121093.554688-7.398438 1.03125-3.464844.484375c-3.242187.460937-6.367187.914062-9.386718 1.332031l-.691407.09375c-2.773437.375-5.460937.726563-8.082031 1.042969l-1.046875.125c-5.691406.675781-11.09375 1.1875-16.15625 1.402344-.078125.007812-.152344.023437-.230469.042968-23.3125.988282-40.617187-4.105468-62.164062-25.644531-14.300782-14.25-14.675782-30.875-7.109375-52.042969zm163.191406 143.445313c-22.808594 0-49.953125-26.171875-74.238281-50.347657 1.585937-.195312 3.25-.425781 4.878906-.640624l3.160156-.417969c3.335938-.453125 6.757813-.9375 10.332032-1.441407l6.050781-.855468c2.277343-.324219 4.496093-.636719 6.828125-.960938l3.171875-.402344c3.535156-.46875 7.09375-.929687 10.839843-1.367187 1.484376-.167969 3.085938-.3125 4.605469-.476563 3.414063-.367187 6.878907-.734374 10.515625-1.050781 1.851563-.160156 3.847656-.273437 5.757813-.417969 2.980469-.222656 5.972656-.433593 9.105469-.613281 3.960937 2.867188 8.484374 5.921875 13.210937 8.960938h.066406c3.601563 2.3125 7.363281 4.554687 11.28125 6.714843 1.066407.589844 2.132813 1.152344 3.199219 1.707032 2.65625 1.398437 5.328125 2.703125 8.066406 3.941406 2.105469.949219 4.207032 1.828125 6.3125 2.636719 1.007813.382812 1.972656.898437 2.980469 1.246093l-.394531.546876c-.410156.570312-.851563 1.144531-1.234375 1.707031-1.769531 2.472656-3.570313 4.992187-5.421875 7.457031l-.09375.121094c-1.707032 2.292968-3.507813 4.53125-5.347656 6.671875-7.867188 10.730469-20.328126 17.132812-33.632813 17.28125zm181.703125-65.769531c-27.699219 27.699218-74.421875 44.777343-124.75 46.226562l1.449219-2.023438c.480469-.671874.929687-1.289062 1.402343-1.945312 1.191407-1.707031 2.378907-3.300781 3.539063-4.863281.300781-.402344.605469-.757813.90625-1.160157h.238281c2.164063.234376 4.339844.359376 6.519532.367188 7.820312.046875 15.542968-1.742188 22.554687-5.214844h.066406c1.679688-.832031 3.3125-1.757812 4.890625-2.773437l.359375-.210938c1.460938-.957031 2.902344-2.007812 4.324219-3.152343.207031-.160157.417969-.296876.625-.457032 1.550781-1.28125 3.097656-2.664062 4.605469-4.175781 3.261719-3.257813 6.253906-6.449219 9.070312-9.597656 1.160157-1.296875 2.203125-2.5625 3.3125-3.875 1.570313-1.84375 3.132813-3.6875 4.558594-5.496094 1.148437-1.449219 2.226563-2.910156 3.300781-4.351563 1.261719-1.707031 2.472656-3.414062 3.609375-5.078124.929688-1.363282 1.851563-2.730469 2.714844-4.09375 1.289063-2.03125 2.449219-4.03125 3.558594-5.976563.449219-.800781.996093-1.601563 1.421875-2.40625l2.902344-1.945313 4.589843-3.0625c16.847657-10.890624 33.132813-22.625 48.796875-35.15625l.355469-.28125c1.351563 22.363282-1.117187 46.90625-14.921875 60.703126zm16.613281-84.726563c-.207031.15625-.425781.257813-.613281.425781-14.945312 13.464844-30.910156 25.75-47.746094 36.753906.070313-.375.070313-.714843.136719-1.082031.519531-2.824219.890625-5.671875 1.109375-8.535156.078125-1.007813.109375-1.980469.152344-2.96875.085937-2.285156.09375-4.53125 0-6.722656-.042969-1.042969-.101563-2.066407-.1875-3.089844-.164063-2.054687-.390625-4.066406-.679688-6.035156-.128906-.851563-.25-1.707031-.394531-2.558594-.410156-2.296875-.851563-4.523437-1.398437-6.679687 0-.148438-.058594-.316407-.09375-.460938 1.347656-2.082031 2.65625-4.269531 3.925781-6.554688 1.183593-2.125 2.261719-4.226562 3.277343-6.308593.332032-.699219.621094-1.378907.9375-2.070313.632813-1.382812 1.261719-2.757812 1.824219-4.113281.335938-.792969.617188-1.570313.914063-2.363281.476562-1.230469.957031-2.460938 1.367187-3.679688.28125-.851562.527344-1.621094.785157-2.433594.355468-1.160156.714843-2.320312 1.03125-3.460937.222656-.855469.417968-1.632813.613281-2.441406.273437-1.109375.53125-2.21875.75-3.3125.164062-.800781.308593-1.605469.453125-2.398438.1875-1.082031.351562-2.15625.496094-3.234375.101562-.765625.203124-1.542968.28125-2.3125.109374-1.066406.1875-2.125.257812-3.171875.050781-.742187.101562-1.476562.125-2.210937 0-1.066406 0-2.117188 0-3.15625 0-.691406 0-1.390625 0-2.074219 0-1.101563-.109375-2.183594-.195312-3.269531-.042969-.597656-.066407-1.203125-.128907-1.792969-.125-1.277344-.304687-2.558594-.492187-3.761719-.0625-.382812-.09375-.777344-.164063-1.152344-.265625-1.621093-.589843-3.21875-.957031-4.785156-.074219-.324218-.167969-.632812-.246094-.957031-.308594-1.230469-.632812-2.449219-.988281-3.644531-.164063-.554688-.359375-1.09375-.539063-1.636719-.308593-.949219-.613281-1.886719-.957031-2.816406-.210937-.597657-.460937-1.179688-.691406-1.765625-.332031-.855469-.671875-1.707032-1.03125-2.5625-.265625-.605469-.539063-1.195313-.808594-1.78125-.367187-.796875-.734375-1.582032-1.121093-2.355469-.296876-.597656-.605469-1.1875-.910157-1.769531-.394531-.75-.796875-1.484375-1.203125-2.214844l-1-1.707031c-.425781-.710938-.851562-1.410157-1.289062-2.101563-.347656-.5625-.707032-1.117187-1.066406-1.707031-.359376-.585937-.902344-1.339844-1.363282-2.003906-.367187-.53125-.734375-1.066407-1.109375-1.585938-.480469-.660156-.957031-1.296875-1.445312-1.9375-.382813-.503906-.757813-1.007812-1.140625-1.503906-.503906-.628906-1.007813-1.246094-1.519532-1.859375-.382812-.46875-.769531-.945312-1.152343-1.40625-.5625-.660156-1.125-1.296875-1.707031-1.929688-.582032-.632812-1.1875-1.332031-1.792969-1.980468-.605469-.648438-1.261719-1.363282-1.902344-2.023438-.496094-.503906-.988281-.980468-1.484375-1.464844-.496094-.488281-.851562-.855468-1.289062-1.289062-.433594-.4375-1.023438-.964844-1.535157-1.441406-.511719-.480469-.855469-.777344-1.230469-1.144532-.375-.367187-1.039062-.9375-1.558593-1.398437l-1.171875-1.027344-1.558594-1.320312-1.121094-.929688-1.570312-1.273437-.996094-.785156-1.589844-1.21875c-.296875-.230469-.585937-.453126-.851562-.667969-.539063-.40625-1.074219-.800781-1.59375-1.183594l-.71875-.503906c-.546875-.402344-1.09375-.785157-1.621094-1.160157.9375-2.910156 1.660156-5.886718 2.160156-8.902343l1.707032.402343c5.027343 1.246094 10.175781 2.492188 15.445312 3.738282 25.210938 4.929687 49.816406 12.566406 73.386719 22.785156 17.472656 8.796875 26.390625 18.976562 27.238281 31.128906.042969.65625.203125 1.269532.203125 1.945313-.035156 32.359375-17.46875 58.203125-40.652344 79.972656zm52.566407-100.691406c-6.863282-11.550781-17.054688-20.753907-29.246094-26.402344-.46875-.90625-.902344-1.808594-1.355469-2.714844-1.210937-2.441406-2.371094-4.871093-3.414063-7.285156-.734374-1.664063-1.441406-3.328125-2.117187-4.976563-.792969-1.929687-1.519531-3.847656-2.226563-5.761718-.707031-1.910156-1.398437-3.71875-2.023437-5.5625-.621094-1.84375-1.117187-3.507813-1.703125-5.265625-1.003906-3.21875-1.925781-6.40625-2.765625-9.566407-.53125-1.960937-1.058594-3.925781-1.535156-5.878906-.128907-.511718-.242188-1.015625-.359375-1.519531 3.148437 1.707031 6.304687 3.414063 9.386718 5.121094 22.75 12.203125 51.011719 27.453125 51.011719 39.398437-1.472656 11.257813-6.222656 21.832032-13.652343 30.414063zm0 0"/></svg>